<?xml version="1.0" encoding="utf-8"?>
<!-- Generator: Adobe Illustrator 16.0.0, SVG Export Plug-In . SVG Version: 6.00 Build 0)  -->
<!DOCTYPE svg PUBLIC "-//W3C//DTD SVG 1.1//EN" "http://www.w3.org/Graphics/SVG/1.1/DTD/svg11.dtd">
<svg version="1.1" id="Calque_1" xmlns="http://www.w3.org/2000/svg" xmlns:xlink="http://www.w3.org/1999/xlink" x="0px" y="0px"
	 width="75px" height="95px" viewBox="0 0 75 95" enable-background="new 0 0 75 95" xml:space="preserve">
<g id="c">
	<path id="b" fill="none" stroke="#111166" stroke-width="0.7" d="M9.26,17.8c-0.938,0-1.699,0.762-1.699,1.701
		c0,0.938,0.761,1.699,1.699,1.699h2.3l-1.15,2c-0.431,0.834-0.104,1.859,0.731,2.29c0.778,0.402,1.735,0.146,2.209-0.59l1.15-2
		l1.15,2c0.508,0.79,1.561,1.018,2.35,0.509c0.737-0.475,0.992-1.431,0.59-2.209l-1.15-2h2.3c0.938,0,1.699-0.762,1.699-1.701
		c0-0.938-0.761-1.699-1.699-1.699h-2.3l1.15-2c0.431-0.834,0.104-1.859-0.731-2.29c-0.778-0.402-1.735-0.146-2.209,0.59l-1.15,2
		l-1.15-2c-0.508-0.79-1.561-1.018-2.35-0.509c-0.737,0.475-0.992,1.431-0.59,2.209l1.15,2H9.26z M14.45,9.7
		c-5.413,0.027-9.778,4.438-9.75,9.85c0.027,5.413,4.438,9.777,9.85,9.75c5.413-0.028,9.778-4.438,9.75-9.85
		c-0.027-5.373-4.376-9.722-9.75-9.75H14.45z M14.45,11.5c-4.418,0.027-7.978,3.632-7.95,8.05c0.028,4.418,3.632,7.978,8.05,7.95
		c4.418-0.027,7.978-3.631,7.95-8.05c-0.027-4.379-3.571-7.922-7.95-7.95H14.45z M14.45,17.5c-1.104,0.027-1.977,0.945-1.95,2.049
		c0.028,1.104,0.945,1.977,2.049,1.95c1.104-0.028,1.977-0.945,1.95-2.05c-0.027-1.065-0.884-1.922-1.95-1.949H14.45z M14.45,19.15
		c-0.191,0.028-0.324,0.205-0.296,0.396c0.027,0.191,0.205,0.324,0.396,0.296c0.191-0.027,0.324-0.205,0.296-0.396
		c-0.022-0.153-0.143-0.274-0.296-0.296H14.45z"/>
	<path fill="none" stroke="#990000" stroke-width="0.7" d="M9.26,45.8c-0.938,0-1.7,0.761-1.7,1.7c0,0.939,0.761,1.7,1.7,1.7h2.3
		l-1.15,2c-0.431,0.834-0.104,1.859,0.731,2.29c0.778,0.402,1.735,0.146,2.209-0.59l1.15-2l1.15,2
		c0.508,0.789,1.561,1.018,2.35,0.509c0.737-0.475,0.992-1.431,0.59-2.209l-1.15-2h2.3c0.938,0,1.7-0.761,1.7-1.7
		c0-0.939-0.761-1.7-1.7-1.7h-2.3l1.15-2c0.431-0.834,0.104-1.859-0.731-2.29c-0.778-0.402-1.735-0.146-2.209,0.59l-1.15,2l-1.15-2
		c-0.508-0.79-1.561-1.018-2.35-0.509c-0.737,0.475-0.992,1.431-0.59,2.209l1.15,2H9.26z M14.45,37.7
		c-5.413,0.027-9.778,4.438-9.75,9.85c0.027,5.412,4.438,9.777,9.85,9.75c5.413-0.028,9.778-4.438,9.75-9.85
		c-0.027-5.373-4.376-9.722-9.75-9.75H14.45z M14.45,39.5c-4.418,0.027-7.978,3.632-7.95,8.05c0.028,4.418,3.632,7.978,8.05,7.95
		c4.418-0.027,7.978-3.632,7.95-8.05c-0.027-4.379-3.571-7.922-7.95-7.95H14.45z M14.45,45.5c-1.104,0.027-1.977,0.945-1.95,2.049
		c0.028,1.104,0.945,1.977,2.049,1.949c1.104-0.027,1.977-0.944,1.95-2.049c-0.027-1.065-0.884-1.923-1.95-1.949H14.45z
		 M14.45,47.15c-0.191,0.028-0.324,0.205-0.296,0.396c0.027,0.191,0.205,0.324,0.396,0.296c0.191-0.027,0.324-0.205,0.296-0.396
		c-0.022-0.153-0.143-0.274-0.296-0.296H14.45z"/>
	<g>
		<path id="b_1_" fill="none" stroke="#111166" stroke-width="0.7" d="M9.26,73.8c-0.938,0.001-1.699,0.763-1.699,1.701
			S8.322,77.199,9.26,77.2h2.3l-1.15,2c-0.431,0.834-0.104,1.859,0.731,2.29c0.778,0.402,1.735,0.146,2.209-0.59l1.15-2l1.15,2
			c0.508,0.789,1.561,1.018,2.35,0.509c0.737-0.475,0.992-1.431,0.59-2.209l-1.15-2h2.3c0.938-0.001,1.699-0.763,1.699-1.701
			s-0.761-1.698-1.699-1.699h-2.3l1.15-2c0.431-0.834,0.104-1.859-0.731-2.29c-0.778-0.402-1.735-0.146-2.209,0.59l-1.15,2l-1.15-2
			c-0.508-0.789-1.561-1.018-2.35-0.509c-0.737,0.475-0.992,1.431-0.59,2.209l1.15,2H9.26z M14.45,65.7
			c-5.413,0.027-9.778,4.438-9.75,9.85c0.027,5.413,4.438,9.777,9.85,9.75c5.413-0.028,9.778-4.438,9.75-9.851
			c-0.027-5.373-4.376-9.722-9.75-9.749H14.45z M14.45,67.5c-4.418,0.027-7.978,3.632-7.95,8.05c0.028,4.418,3.632,7.978,8.05,7.95
			c4.418-0.027,7.978-3.632,7.95-8.051c-0.027-4.379-3.571-7.922-7.95-7.949H14.45z M14.45,73.5
			c-1.104,0.027-1.977,0.945-1.95,2.049c0.028,1.105,0.945,1.978,2.049,1.95c1.104-0.028,1.977-0.945,1.95-2.05
			c-0.027-1.065-0.884-1.922-1.95-1.949H14.45z M14.45,75.15c-0.191,0.027-0.324,0.205-0.296,0.396
			c0.027,0.191,0.205,0.324,0.396,0.296c0.191-0.027,0.324-0.205,0.296-0.396c-0.022-0.153-0.143-0.274-0.296-0.296H14.45z"/>
	</g>
</g>
<g>
	<g id="c_1_">
		<path id="b_2_" fill="none" stroke="#111166" stroke-width="0.7" d="M32.26,17.8c-0.938,0-1.699,0.762-1.699,1.701
			c0,0.938,0.761,1.699,1.699,1.699h2.3l-1.15,2c-0.431,0.834-0.104,1.859,0.731,2.29c0.778,0.402,1.735,0.146,2.209-0.59l1.15-2
			l1.15,2c0.508,0.79,1.561,1.018,2.35,0.509c0.736-0.475,0.992-1.431,0.59-2.209l-1.15-2h2.301c0.938,0,1.699-0.762,1.699-1.701
			c-0.001-0.938-0.762-1.699-1.699-1.699h-2.301l1.15-2c0.431-0.834,0.104-1.859-0.73-2.29c-0.779-0.402-1.735-0.146-2.209,0.59
			l-1.15,2l-1.15-2c-0.508-0.79-1.561-1.018-2.35-0.509c-0.737,0.475-0.992,1.431-0.59,2.209l1.15,2H32.26z M37.45,9.7
			c-5.413,0.027-9.778,4.438-9.75,9.85c0.027,5.413,4.438,9.777,9.85,9.75c5.413-0.028,9.778-4.438,9.75-9.85
			c-0.027-5.373-4.376-9.722-9.75-9.75H37.45z M37.45,11.5c-4.418,0.027-7.978,3.632-7.95,8.05c0.028,4.418,3.632,7.978,8.05,7.95
			c4.419-0.027,7.978-3.631,7.95-8.05c-0.027-4.379-3.57-7.922-7.95-7.95H37.45z M37.45,17.5c-1.104,0.027-1.977,0.945-1.95,2.049
			c0.028,1.104,0.945,1.977,2.049,1.95c1.104-0.028,1.978-0.945,1.95-2.05c-0.027-1.065-0.885-1.922-1.95-1.949H37.45z M37.45,19.15
			c-0.191,0.028-0.324,0.205-0.296,0.396c0.027,0.191,0.205,0.324,0.396,0.296c0.191-0.027,0.324-0.205,0.296-0.396
			c-0.022-0.153-0.143-0.274-0.296-0.296H37.45z"/>
		<path fill="none" stroke="#990000" stroke-width="0.7" d="M32.26,45.8c-0.938,0-1.7,0.761-1.7,1.7c0,0.939,0.761,1.7,1.7,1.7h2.3
			l-1.15,2c-0.431,0.834-0.104,1.859,0.731,2.29c0.778,0.402,1.735,0.146,2.209-0.59l1.15-2l1.15,2
			c0.508,0.789,1.561,1.018,2.35,0.509c0.736-0.475,0.992-1.431,0.59-2.209l-1.15-2h2.301c0.938,0,1.699-0.761,1.699-1.7
			c0-0.939-0.761-1.7-1.699-1.7h-2.301l1.15-2c0.431-0.834,0.104-1.859-0.73-2.29c-0.779-0.402-1.735-0.146-2.209,0.59l-1.15,2
			l-1.15-2c-0.508-0.79-1.561-1.018-2.35-0.509c-0.737,0.475-0.992,1.431-0.59,2.209l1.15,2H32.26z M37.45,37.7
			c-5.413,0.027-9.778,4.438-9.75,9.85c0.027,5.412,4.438,9.777,9.85,9.75c5.413-0.028,9.778-4.438,9.75-9.85
			c-0.027-5.373-4.376-9.722-9.75-9.75H37.45z M37.45,39.5c-4.418,0.027-7.978,3.632-7.95,8.05c0.028,4.418,3.632,7.978,8.05,7.95
			c4.419-0.027,7.978-3.632,7.95-8.05c-0.027-4.379-3.57-7.922-7.95-7.95H37.45z M37.45,45.5c-1.104,0.027-1.977,0.945-1.95,2.049
			c0.028,1.104,0.945,1.977,2.049,1.949c1.104-0.027,1.978-0.944,1.95-2.049c-0.027-1.065-0.885-1.923-1.95-1.949H37.45z
			 M37.45,47.15c-0.191,0.028-0.324,0.205-0.296,0.396c0.027,0.191,0.205,0.324,0.396,0.296c0.191-0.027,0.324-0.205,0.296-0.396
			c-0.022-0.153-0.143-0.274-0.296-0.296H37.45z"/>
		<g>
			<path id="b_3_" fill="none" stroke="#111166" stroke-width="0.7" d="M32.26,73.8c-0.938,0.001-1.699,0.763-1.699,1.701
				s0.761,1.698,1.699,1.699h2.3l-1.15,2c-0.431,0.834-0.104,1.859,0.731,2.29c0.778,0.402,1.735,0.146,2.209-0.59l1.15-2l1.15,2
				c0.508,0.789,1.561,1.018,2.35,0.509c0.736-0.475,0.992-1.431,0.59-2.209l-1.15-2h2.301c0.938-0.001,1.699-0.763,1.699-1.701
				c-0.001-0.938-0.762-1.698-1.699-1.699h-2.301l1.15-2c0.431-0.834,0.104-1.859-0.73-2.29c-0.779-0.402-1.735-0.146-2.209,0.59
				l-1.15,2l-1.15-2c-0.508-0.789-1.561-1.018-2.35-0.509c-0.737,0.475-0.992,1.431-0.59,2.209l1.15,2H32.26z M37.45,65.7
				c-5.413,0.027-9.778,4.438-9.75,9.85c0.027,5.413,4.438,9.777,9.85,9.75c5.413-0.028,9.778-4.438,9.75-9.851
				c-0.027-5.373-4.376-9.722-9.75-9.749H37.45z M37.45,67.5c-4.418,0.027-7.978,3.632-7.95,8.05c0.028,4.418,3.632,7.978,8.05,7.95
				c4.419-0.027,7.978-3.632,7.95-8.051c-0.027-4.379-3.57-7.922-7.95-7.949H37.45z M37.45,73.5
				c-1.104,0.027-1.977,0.945-1.95,2.049c0.028,1.105,0.945,1.978,2.049,1.95c1.104-0.028,1.978-0.945,1.95-2.05
				c-0.027-1.065-0.885-1.922-1.95-1.949H37.45z M37.45,75.15c-0.191,0.027-0.324,0.205-0.296,0.396
				c0.027,0.191,0.205,0.324,0.396,0.296c0.191-0.027,0.324-0.205,0.296-0.396c-0.022-0.153-0.143-0.274-0.296-0.296H37.45z"/>
		</g>
	</g>
	<g>
		<g id="c_2_">
			<path id="b_4_" fill="none" stroke="#111166" stroke-width="0.7" d="M55.26,17.8c-0.938,0-1.699,0.762-1.699,1.701
				c0.001,0.938,0.762,1.699,1.699,1.699h2.301l-1.15,2c-0.431,0.834-0.104,1.859,0.73,2.29c0.779,0.402,1.735,0.146,2.209-0.59
				l1.15-2l1.15,2c0.508,0.79,1.561,1.018,2.35,0.509c0.736-0.475,0.992-1.431,0.59-2.209l-1.15-2h2.301
				c0.938,0,1.699-0.762,1.699-1.701c-0.001-0.938-0.762-1.699-1.699-1.699h-2.301l1.15-2c0.431-0.834,0.104-1.859-0.73-2.29
				c-0.779-0.402-1.735-0.146-2.209,0.59l-1.15,2l-1.15-2c-0.508-0.79-1.561-1.018-2.35-0.509c-0.736,0.475-0.992,1.431-0.59,2.209
				l1.15,2H55.26z M60.45,9.7c-5.413,0.027-9.778,4.438-9.75,9.85c0.027,5.413,4.438,9.777,9.85,9.75
				c5.413-0.028,9.778-4.438,9.75-9.85c-0.027-5.373-4.376-9.722-9.75-9.75H60.45z M60.45,11.5c-4.419,0.027-7.978,3.632-7.95,8.05
				s3.632,7.978,8.05,7.95c4.419-0.027,7.978-3.631,7.95-8.05c-0.027-4.379-3.57-7.922-7.95-7.95H60.45z M60.45,17.5
				c-1.104,0.027-1.978,0.945-1.95,2.049c0.028,1.104,0.945,1.977,2.05,1.95c1.104-0.028,1.978-0.945,1.95-2.05
				c-0.027-1.065-0.885-1.922-1.95-1.949H60.45z M60.45,19.15c-0.191,0.028-0.324,0.205-0.296,0.396
				c0.027,0.191,0.205,0.324,0.396,0.296c0.191-0.027,0.324-0.205,0.296-0.396c-0.021-0.153-0.143-0.274-0.296-0.296H60.45z"/>
			<path fill="none" stroke="#990000" stroke-width="0.7" d="M55.26,45.8c-0.938,0-1.699,0.761-1.699,1.7
				c0,0.939,0.761,1.7,1.699,1.7h2.301l-1.15,2c-0.431,0.834-0.104,1.859,0.73,2.29c0.779,0.402,1.735,0.146,2.209-0.59l1.15-2
				l1.15,2c0.508,0.789,1.561,1.018,2.35,0.509c0.736-0.475,0.992-1.431,0.59-2.209l-1.15-2h2.301c0.938,0,1.699-0.761,1.699-1.7
				c0-0.939-0.761-1.7-1.699-1.7h-2.301l1.15-2c0.431-0.834,0.104-1.859-0.73-2.29c-0.779-0.402-1.735-0.146-2.209,0.59l-1.15,2
				l-1.15-2c-0.508-0.79-1.561-1.018-2.35-0.509c-0.736,0.475-0.992,1.431-0.59,2.209l1.15,2H55.26z M60.45,37.7
				c-5.413,0.027-9.778,4.438-9.75,9.85c0.027,5.412,4.438,9.777,9.85,9.75c5.413-0.028,9.778-4.438,9.75-9.85
				c-0.027-5.373-4.376-9.722-9.75-9.75H60.45z M60.45,39.5c-4.419,0.027-7.978,3.632-7.95,8.05s3.632,7.978,8.05,7.95
				c4.419-0.027,7.978-3.632,7.95-8.05c-0.027-4.379-3.57-7.922-7.95-7.95H60.45z M60.45,45.5c-1.104,0.027-1.978,0.945-1.95,2.049
				c0.028,1.104,0.945,1.977,2.05,1.949c1.104-0.027,1.978-0.944,1.95-2.049c-0.027-1.065-0.885-1.923-1.95-1.949H60.45z
				 M60.45,47.15c-0.191,0.028-0.324,0.205-0.296,0.396c0.027,0.191,0.205,0.324,0.396,0.296c0.191-0.027,0.324-0.205,0.296-0.396
				c-0.021-0.153-0.143-0.274-0.296-0.296H60.45z"/>
			<g>
				<path id="b_5_" fill="none" stroke="#111166" stroke-width="0.7" d="M55.26,73.8c-0.938,0.001-1.699,0.763-1.699,1.701
					c0.001,0.938,0.762,1.698,1.699,1.699h2.301l-1.15,2c-0.431,0.834-0.104,1.859,0.73,2.29c0.779,0.402,1.735,0.146,2.209-0.59
					l1.15-2l1.15,2c0.508,0.789,1.561,1.018,2.35,0.509c0.736-0.475,0.992-1.431,0.59-2.209l-1.15-2h2.301
					c0.938-0.001,1.699-0.763,1.699-1.701c-0.001-0.938-0.762-1.698-1.699-1.699h-2.301l1.15-2c0.431-0.834,0.104-1.859-0.73-2.29
					c-0.779-0.402-1.735-0.146-2.209,0.59l-1.15,2l-1.15-2c-0.508-0.789-1.561-1.018-2.35-0.509
					c-0.736,0.475-0.992,1.431-0.59,2.209l1.15,2H55.26z M60.45,65.7c-5.413,0.027-9.778,4.438-9.75,9.85
					c0.027,5.413,4.438,9.777,9.85,9.75c5.413-0.028,9.778-4.438,9.75-9.851c-0.027-5.373-4.376-9.722-9.75-9.749H60.45z
					 M60.45,67.5c-4.419,0.027-7.978,3.632-7.95,8.05s3.632,7.978,8.05,7.95c4.419-0.027,7.978-3.632,7.95-8.051
					c-0.027-4.379-3.57-7.922-7.95-7.949H60.45z M60.45,73.5c-1.104,0.027-1.978,0.945-1.95,2.049
					c0.028,1.105,0.945,1.978,2.05,1.95c1.104-0.028,1.978-0.945,1.95-2.05c-0.027-1.065-0.885-1.922-1.95-1.949H60.45z
					 M60.45,75.15c-0.191,0.027-0.324,0.205-0.296,0.396c0.027,0.191,0.205,0.324,0.396,0.296c0.191-0.027,0.324-0.205,0.296-0.396
					c-0.021-0.153-0.143-0.274-0.296-0.296H60.45z"/>
			</g>
		</g>
	</g>
</g>
</svg>
