<?xml version="1.0" encoding="utf-8"?>
<!-- Generator: Adobe Illustrator 16.0.0, SVG Export Plug-In . SVG Version: 6.00 Build 0)  -->
<!DOCTYPE svg PUBLIC "-//W3C//DTD SVG 1.1//EN" "http://www.w3.org/Graphics/SVG/1.1/DTD/svg11.dtd">
<svg version="1.1"
	 id="svg2" xmlns:dc="http://purl.org/dc/elements/1.1/" xmlns:cc="http://creativecommons.org/ns#" xmlns:rdf="http://www.w3.org/1999/02/22-rdf-syntax-ns#" xmlns:svg="http://www.w3.org/2000/svg" xmlns:sodipodi="http://sodipodi.sourceforge.net/DTD/sodipodi-0.dtd" xmlns:inkscape="http://www.inkscape.org/namespaces/inkscape" sodipodi:docname="MJDGreen.svg" inkscape:version="0.47pre4 r22446"
	 xmlns="http://www.w3.org/2000/svg" xmlns:xlink="http://www.w3.org/1999/xlink" x="0px" y="0px" width="64px" height="88px"
	 viewBox="0 0 64 88" enable-background="new 0 0 64 88" xml:space="preserve">
<sodipodi:namedview  showgrid="false" inkscape:cy="91.354191" inkscape:cx="25.450351" inkscape:zoom="1.4" borderopacity="1.0" bordercolor="#666666" pagecolor="#ffffff" id="base" inkscape:window-maximized="0" inkscape:window-y="107" inkscape:current-layer="layer1" inkscape:document-units="px" inkscape:window-x="756" inkscape:pageshadow="2" inkscape:pageopacity="0.0" inkscape:window-width="855" inkscape:window-height="838">
	</sodipodi:namedview>
<g id="use361" transform="translate(508.57143,598.36217)">
	<path id="path4429" fill="#BA0000" d="M-474.562-557.222c0,0-4.39,3.33-4.78,3.629c-0.32-0.33-3.2-3.27-3.2-3.27l2.22,8.92
		l0.6-0.029c0.75-4.761,4.35-6.631,5.33-7.051c0.141,0.2,0.26,0.42,0.26,0.72c0,0.09-0.01,0.18-0.02,0.28
		c-0.21,1.67-2.391,4.641-6.68,7.21l-0.31,0.181l0.81,1.01l0.2-0.061c0.06-0.02,6.589-2.06,10.36-1.88l1.14,0.05l-0.959-0.63
		c-0.08-0.05-1.951-1.25-3.931-1.03c0.28-0.629,2.261-2.56,4.15-4.159l0.31-0.261l-5.32-3.77L-474.562-557.222z"/>
	<path id="path4431" fill="#BA0000" d="M-458.792-532.722c-0.17-0.171-4.209-4.281-5.629-5.011c-0.53-0.271-1.711-0.18-5.75,0.16
		c0,0-0.17,0.01-0.43,0.04c1.189-2.79,2.719-5.86,3.569-6.25l0.55-0.25l-2.13-2.09l-0.21,0.029c-5.109,0.871-13.08,2.09-14.11,1.9
		l-0.35-0.07l-0.12,0.33c-0.2,0.561,0.32,4.93,0.86,7.37c-4.58,0.4-10.03,0.86-10.03,0.86l0.3,0.56l0.68,1.271l0.32-0.09
		c1.72-0.51,2.52-0.57,4.6-0.541c0.19,0.49,2.6,6.771,2.6,6.771l0.79-0.2c0,0-0.69-5.689-0.8-6.52c0.78,0.02,7.99,0.22,9.67,0.26
		c-1.09,0.92-3.561,3.02-3.561,3.02l0.4,0.711c0,0,5.15-1.76,5.41-1.851c0.25,0.101,4.3,1.65,4.3,1.65s-2.13-2.57-2.81-3.38
		c3.779,0.199,4.75,0.42,5.01,0.74c0.33,0.39,0.5,0.959,0.5,1.6c0,1.16-0.58,2.57-1.801,3.73c-1.819-0.461-5.17-2.341-5.209-2.36
		l-0.521,0.62l5.08,6.35l0.24-0.05c3.819-0.78,8.44-8.48,8.63-8.81l0.17-0.271L-458.792-532.722z M-471.552-540.712
		c-1.22,0.16-2.77,0.369-3.209,0.43c0-0.33,0-1.17,0-2c1.619-0.13,3.109-0.25,3.489-0.29
		C-471.321-542.302-471.421-541.593-471.552-540.712z M-476.482-542.142c0.02,0.841,0.04,1.75,0.051,2.061
		c-1.41,0.159-2.601,0.26-3.551,0.3c0.1-0.62,0.19-1.311,0.3-2.1C-479.442-541.902-478.062-542.013-476.482-542.142z
		 M-480.542-536.712c0.08-0.351,0.17-0.76,0.26-1.24c1.3-0.24,2.61-0.46,3.89-0.63c0.01,0.479,0.03,1.1,0.041,1.52
		C-476.601-537.052-478.312-536.902-480.542-536.712z M-474.772-537.192c0-0.48,0-1.18,0-1.6c0.979-0.101,1.36-0.08,1.96-0.021
		l0.961,0.06c-0.07,0.461-0.141,0.921-0.201,1.351C-473.142-537.322-474.382-537.222-474.772-537.192z"/>
</g>
<path id="path787" fill="#20208C" d="M40.8,18.1c-0.3,0.2-0.399,0.5-0.399,0.8c0,0.3,0.1,0.5,0.1,0.7c-2.6,0.2-19.7,1.8-23.9,1.4
	h-0.4l1.7,6l0.3-0.1c3.3-1.1,24.1-2.4,29-1.4c0.8,0.1,1.2,0,1.399-0.4c0.5-1-1.899-3.5-3.399-4.8C44.3,19.4,41.8,17.5,40.8,18.1
	L40.8,18.1z"/>
</svg>
