<?xml version="1.0" encoding="utf-8"?>
<!-- Generator: Adobe Illustrator 16.0.0, SVG Export Plug-In . SVG Version: 6.00 Build 0)  -->
<!DOCTYPE svg PUBLIC "-//W3C//DTD SVG 1.1//EN" "http://www.w3.org/Graphics/SVG/1.1/DTD/svg11.dtd">
<svg version="1.1"
	 id="svg2" xmlns:dc="http://purl.org/dc/elements/1.1/" xmlns:cc="http://creativecommons.org/ns#" xmlns:rdf="http://www.w3.org/1999/02/22-rdf-syntax-ns#" xmlns:svg="http://www.w3.org/2000/svg" xmlns:sodipodi="http://sodipodi.sourceforge.net/DTD/sodipodi-0.dtd" xmlns:inkscape="http://www.inkscape.org/namespaces/inkscape" sodipodi:docname="MJChar3.svg" inkscape:version="0.47pre4 r22446"
	 xmlns="http://www.w3.org/2000/svg" xmlns:xlink="http://www.w3.org/1999/xlink" x="0px" y="0px" width="64px" height="88px"
	 viewBox="0 0 64 88" enable-background="new 0 0 64 88" xml:space="preserve">
<sodipodi:namedview  showgrid="false" inkscape:cy="56.925611" inkscape:cx="-8.5496486" inkscape:zoom="1.4" borderopacity="1.0" bordercolor="#666666" pagecolor="#ffffff" id="base" inkscape:window-maximized="0" inkscape:window-y="107" inkscape:current-layer="layer1" inkscape:document-units="px" inkscape:window-x="756" inkscape:pageshadow="2" inkscape:pageopacity="0.0" inkscape:window-width="855" inkscape:window-height="838">
	</sodipodi:namedview>
<g id="use367" transform="translate(542.57143,563.93359)">
	<path id="path4411" fill="#BA0000" d="M-508.562-522.793c0,0-4.39,3.33-4.78,3.629c-0.32-0.33-3.2-3.27-3.2-3.27l2.22,8.92
		l0.6-0.029c0.75-4.761,4.35-6.631,5.33-7.051c0.141,0.2,0.26,0.42,0.26,0.72c0,0.09-0.01,0.18-0.02,0.28
		c-0.21,1.67-2.391,4.641-6.68,7.21l-0.31,0.181l0.81,1.01l0.2-0.061c0.06-0.02,6.589-2.06,10.36-1.88l1.14,0.05l-0.959-0.63
		c-0.08-0.05-1.951-1.25-3.931-1.03c0.28-0.629,2.261-2.56,4.15-4.159l0.31-0.261l-5.32-3.77L-508.562-522.793z"/>
	<path id="path4413" fill="#BA0000" d="M-492.792-498.293c-0.17-0.171-4.209-4.281-5.629-5.011c-0.53-0.271-1.711-0.18-5.75,0.16
		c0,0-0.17,0.01-0.43,0.04c1.189-2.79,2.719-5.86,3.569-6.25l0.55-0.25l-2.13-2.09l-0.21,0.029c-5.109,0.871-13.08,2.09-14.11,1.9
		l-0.35-0.07l-0.12,0.33c-0.2,0.561,0.32,4.93,0.86,7.37c-4.58,0.4-10.03,0.86-10.03,0.86l0.3,0.56l0.68,1.271l0.32-0.09
		c1.72-0.51,2.52-0.57,4.6-0.541c0.19,0.49,2.6,6.771,2.6,6.771l0.79-0.2c0,0-0.69-5.689-0.8-6.52c0.78,0.02,7.99,0.22,9.67,0.26
		c-1.09,0.92-3.561,3.02-3.561,3.02l0.4,0.711c0,0,5.15-1.76,5.41-1.851c0.25,0.101,4.3,1.65,4.3,1.65s-2.13-2.57-2.81-3.38
		c3.779,0.199,4.75,0.42,5.01,0.74c0.33,0.39,0.5,0.959,0.5,1.6c0,1.16-0.58,2.57-1.801,3.73c-1.819-0.461-5.17-2.341-5.209-2.36
		l-0.521,0.62l5.08,6.35l0.24-0.05c3.819-0.78,8.44-8.48,8.63-8.81l0.17-0.271L-492.792-498.293z M-505.552-506.283
		c-1.22,0.16-2.77,0.369-3.209,0.43c0-0.33,0-1.17,0-2c1.619-0.13,3.109-0.25,3.489-0.29
		C-505.321-507.873-505.421-507.164-505.552-506.283z M-510.482-507.714c0.02,0.841,0.04,1.75,0.051,2.061
		c-1.41,0.159-2.601,0.26-3.551,0.3c0.1-0.62,0.19-1.311,0.3-2.1C-513.442-507.474-512.062-507.584-510.482-507.714z
		 M-514.542-502.283c0.08-0.351,0.17-0.76,0.26-1.24c1.3-0.24,2.61-0.46,3.89-0.63c0.01,0.479,0.03,1.1,0.041,1.52
		C-510.601-502.623-512.312-502.474-514.542-502.283z M-508.772-502.764c0-0.48,0-1.18,0-1.6c0.979-0.101,1.36-0.08,1.96-0.021
		l0.961,0.06c-0.07,0.461-0.141,0.921-0.201,1.351C-507.142-502.894-508.382-502.793-508.772-502.764z"/>
</g>
<path id="path785" fill="#20208C" d="M16.2,12.1L23,31.5l0.3-0.1c3.6-1.2,13.3-4.1,15.3-2.6c0.2,0.2,0.301,0.4,0.301,0.7L38.8,30.3
	l0.601-0.5c6.8-5.3,9.399-14,9.399-14.1v-0.2l-0.1-0.1c-4.9-7.3-24.9-1.3-25.7-1l-0.2,0.1v0.2c0,0-0.2,1.7-0.2,2.4
	c-0.4-1.5-1.1-4.1-1.1-4.1l-5.6-1.3L16.2,12.1L16.2,12.1z M23.1,17.8c1.2-0.3,2.6-0.7,4-1l0,0c0,0,1.9,9.3,2,9.9
	c-0.5,0.1-3,0.8-3.6,1c-0.1-0.4-1.4-5.6-2.5-9.9C23,17.9,23.1,17.8,23.1,17.8z M34.8,15.5c0,0.1-0.399,9.6-0.399,10.2
	C34,25.8,32.3,26.1,31.8,26.2c-0.1-0.6-1.8-9.6-1.8-9.9C31.7,15.9,33.3,15.7,34.8,15.5z M42.7,16.4c-0.2,2.3-1.101,8.1-2.601,9.9
	c-0.1-0.1,0-0.2-0.1-0.3c-0.5-0.5-1.6-0.7-3.3-0.6c0.3-4.5,1-7.5,1.899-7.9l0.701-0.3c0,0-3.5-1.7-3.801-1.8
	C39.301,15,42.301,15.1,42.7,16.4L42.7,16.4z"/>
</svg>
