<?xml version="1.0" encoding="utf-8"?>
<!-- Generator: Adobe Illustrator 16.0.0, SVG Export Plug-In . SVG Version: 6.00 Build 0)  -->
<!DOCTYPE svg PUBLIC "-//W3C//DTD SVG 1.1//EN" "http://www.w3.org/Graphics/SVG/1.1/DTD/svg11.dtd">
<svg version="1.1"
	 id="svg2" xmlns:dc="http://purl.org/dc/elements/1.1/" xmlns:cc="http://creativecommons.org/ns#" xmlns:rdf="http://www.w3.org/1999/02/22-rdf-syntax-ns#" xmlns:svg="http://www.w3.org/2000/svg" xmlns:sodipodi="http://sodipodi.sourceforge.net/DTD/sodipodi-0.dtd" xmlns:inkscape="http://www.inkscape.org/namespaces/inkscape" sodipodi:docname="MJChar4.svg" inkscape:version="0.47pre4 r22446"
	 xmlns="http://www.w3.org/2000/svg" xmlns:xlink="http://www.w3.org/1999/xlink" x="0px" y="0px" width="64px" height="88px"
	 viewBox="0 0 64 88" enable-background="new 0 0 64 88" xml:space="preserve">
<sodipodi:namedview  showgrid="false" inkscape:cy="53.068471" inkscape:cx="-6.5496486" inkscape:zoom="1.4" borderopacity="1.0" bordercolor="#666666" pagecolor="#ffffff" id="base" inkscape:window-maximized="0" inkscape:window-y="107" inkscape:current-layer="layer1" inkscape:document-units="px" inkscape:window-x="756" inkscape:pageshadow="2" inkscape:pageopacity="0.0" inkscape:window-width="855" inkscape:window-height="838">
	</sodipodi:namedview>
<g id="use369" transform="translate(540.57143,560.07645)">
	<path id="path4405" fill="#BA0000" d="M-506.562-518.936c0,0-4.39,3.33-4.78,3.629c-0.32-0.33-3.2-3.27-3.2-3.27l2.22,8.92
		l0.6-0.029c0.75-4.761,4.35-6.63,5.33-7.051c0.141,0.2,0.26,0.42,0.26,0.72c0,0.09-0.01,0.18-0.02,0.28
		c-0.21,1.67-2.391,4.641-6.68,7.21l-0.31,0.181l0.81,1.01l0.2-0.061c0.06-0.02,6.589-2.06,10.36-1.88l1.14,0.05l-0.959-0.629
		c-0.08-0.051-1.951-1.25-3.931-1.031c0.28-0.629,2.261-2.56,4.15-4.159l0.31-0.261l-5.32-3.77L-506.562-518.936z"/>
	<path id="path4407" fill="#BA0000" d="M-490.792-494.436c-0.17-0.17-4.209-4.281-5.629-5.011c-0.53-0.271-1.711-0.18-5.75,0.16
		c0,0-0.17,0.01-0.43,0.04c1.189-2.79,2.719-5.859,3.569-6.25l0.55-0.25l-2.13-2.09l-0.21,0.029c-5.109,0.871-13.08,2.09-14.11,1.9
		l-0.35-0.07l-0.12,0.33c-0.2,0.561,0.32,4.93,0.86,7.37c-4.58,0.4-10.03,0.86-10.03,0.86l0.3,0.561l0.68,1.27l0.32-0.09
		c1.72-0.51,2.52-0.57,4.6-0.541c0.19,0.49,2.6,6.771,2.6,6.771l0.79-0.2c0,0-0.69-5.689-0.8-6.52c0.78,0.02,7.99,0.22,9.67,0.26
		c-1.09,0.92-3.561,3.02-3.561,3.02l0.4,0.711c0,0,5.15-1.76,5.41-1.851c0.25,0.101,4.3,1.65,4.3,1.65s-2.13-2.57-2.81-3.38
		c3.779,0.199,4.75,0.42,5.01,0.74c0.33,0.39,0.5,0.959,0.5,1.6c0,1.16-0.58,2.57-1.801,3.73c-1.819-0.461-5.17-2.341-5.209-2.36
		l-0.521,0.62l5.08,6.35l0.24-0.05c3.819-0.78,8.44-8.479,8.63-8.81l0.17-0.271L-490.792-494.436z M-503.552-502.426
		c-1.22,0.16-2.77,0.369-3.209,0.43c0-0.33,0-1.17,0-2c1.619-0.13,3.109-0.25,3.489-0.29
		C-503.321-504.016-503.421-503.307-503.552-502.426z M-508.482-503.856c0.02,0.84,0.04,1.75,0.051,2.06
		c-1.41,0.159-2.601,0.26-3.551,0.3c0.1-0.62,0.19-1.311,0.3-2.1C-511.442-503.617-510.062-503.727-508.482-503.856z
		 M-512.542-498.426c0.08-0.351,0.17-0.76,0.26-1.24c1.3-0.24,2.61-0.46,3.89-0.63c0.01,0.479,0.03,1.1,0.041,1.52
		C-508.601-498.766-510.312-498.617-512.542-498.426z M-506.772-498.907c0-0.48,0-1.18,0-1.6c0.979-0.1,1.36-0.08,1.96-0.021
		l0.961,0.06c-0.07,0.461-0.141,0.921-0.201,1.351C-505.142-499.036-506.382-498.936-506.772-498.907z"/>
</g>
<path id="path799" fill="#20208C" d="M26.8,10.3L16.5,20.8l0.4,0.5c0,0,5.6-3.2,7-4c-0.6,1.5-4.3,11.6-4.3,11.6l3.3,3.5
	c0,0,2.4-15.6,2.4-15.9c0.3-0.2,5.1-2.9,5.1-2.9L27,9.9L26.8,10.3L26.8,10.3z"/>
<path id="path801" fill="#20208C" d="M39.6,10.2H37.7c0,0-0.601,1.3-0.9,1.9L36.7,12l-5.9,3.5l0.2,0.7c0,0,3-0.2,3.9-0.2
	c-0.4,0.8-2.2,4.5-2.301,4.8c-0.399,0-6.3,0.5-6.3,0.5L26.2,22l4,1.6c0,0,0.7-0.3,1.3-0.5c-0.6,1.2-2.5,5.2-2.7,5.5
	c-1.3,0.1-2.3,0.1-2.9,0h-0.4l0.5,3.7l0.3-0.1c1.4-0.2,12.2-1.6,14.101-1.7c1.8-0.1,7.3,2.1,7.399,2.1l0.7,0.3l-0.2-0.7
	c-0.1-0.4-1.3-3.9-2.2-4.8L46,27.3h-0.1c-0.801-0.2-3.601,0-7.5,0.4c0.899-1,4.3-4.6,4.3-4.6l-3.2-3.4c0,0-2.9,7.8-3,8.2
	c-0.3,0-2.7,0.3-3.5,0.3c0.4-0.9,2.5-6.5,2.6-6.7c0.301-0.1,3.2-1.2,3.2-1.2l-0.2-0.7c0,0-1.699,0.3-2.5,0.4
	c0.301-0.9,1.601-4.1,1.7-4.4c0.2,0,1.2-0.1,1.2-0.1s-0.6-0.9-0.7-1.1C38.4,14.1,40,10,40,10h-0.4V10.2z"/>
</svg>
