<?xml version="1.0" encoding="utf-8"?>
<!-- Generator: Adobe Illustrator 16.0.0, SVG Export Plug-In . SVG Version: 6.00 Build 0)  -->
<!DOCTYPE svg PUBLIC "-//W3C//DTD SVG 1.1//EN" "http://www.w3.org/Graphics/SVG/1.1/DTD/svg11.dtd">
<svg version="1.1"
	 id="svg2" xmlns:dc="http://purl.org/dc/elements/1.1/" xmlns:cc="http://creativecommons.org/ns#" xmlns:rdf="http://www.w3.org/1999/02/22-rdf-syntax-ns#" xmlns:svg="http://www.w3.org/2000/svg" xmlns:sodipodi="http://sodipodi.sourceforge.net/DTD/sodipodi-0.dtd" xmlns:inkscape="http://www.inkscape.org/namespaces/inkscape" sodipodi:docname="MJ2tiao.svg" inkscape:version="0.47 r22583"
	 xmlns="http://www.w3.org/2000/svg" xmlns:xlink="http://www.w3.org/1999/xlink" x="0px" y="0px" width="74.7px" height="95.1px"
	 viewBox="0 0 74.7 95.1" enable-background="new 0 0 74.7 95.1" xml:space="preserve">
<sodipodi:namedview  showgrid="false" inkscape:cy="34.752773" inkscape:cx="-3.6893334" inkscape:zoom="4.3041282" borderopacity="1.0" bordercolor="#666666" pagecolor="#ffffff" id="base" inkscape:window-maximized="1" inkscape:window-y="25" inkscape:current-layer="g4079" inkscape:document-units="px" inkscape:window-x="0" inkscape:pageshadow="2" inkscape:pageopacity="0.0" inkscape:window-width="1440" inkscape:window-height="851">
	</sodipodi:namedview>
<g id="g4823" transform="translate(173.72177,303.80073)">
	<path id="path4825" sodipodi:nodetypes="cscscscsccscccccccccccccsccscscscsccscccccccccccccsc" fill="#006C00" d="
		M-131.422-219.151c-1.666-0.133-3.332-0.199-5-0.199c-1.667,0-3.3,0.066-4.9,0.199c0.133-5.6,0.2-11.166,0.2-16.699
		c0-5.534-0.067-11.067-0.2-16.601c1.667,0.134,3.3,0.2,4.9,0.2c1.667,0,3.333-0.066,5-0.2c-0.133,5.533-0.199,11.066-0.199,16.601
		C-131.622-230.251-131.555-224.684-131.422-219.151 M-133.422-250.35c-1,0-2,0-3,0c-0.933,0-1.9,0-2.9,0
		c0.067,4,0.1,7.899,0.1,11.699h5.7C-133.522-242.451-133.489-246.35-133.422-250.35 M-133.522-234.85v-2h-5.7v2H-133.522
		 M-133.422-221.251c-0.066-4.267-0.1-8.167-0.1-11.7h-5.7c0,3.667-0.033,7.566-0.1,11.7c1-0.066,1.967-0.1,2.9-0.1
		C-135.422-221.35-134.422-221.317-133.422-221.251 M-131.422-260.05c-1.666-0.134-3.332-0.2-5-0.2c-1.667,0-3.3,0.066-4.9,0.2
		c0.133-5.601,0.2-11.167,0.2-16.7s-0.067-11.066-0.2-16.6c1.667,0.133,3.3,0.199,4.9,0.199c1.667,0,3.333-0.066,5-0.199
		c-0.133,5.533-0.199,11.066-0.199,16.6C-131.622-271.151-131.555-265.584-131.422-260.05 M-133.422-291.251c-1,0-2,0-3,0
		c-0.933,0-1.9,0-2.9,0c0.067,4,0.1,7.9,0.1,11.7h5.7C-133.522-283.35-133.489-287.251-133.422-291.251 M-133.522-275.751v-2h-5.7v2
		H-133.522 M-133.422-262.151c-0.066-4.267-0.1-8.166-0.1-11.699h-5.7c0,3.666-0.033,7.566-0.1,11.699c1-0.066,1.967-0.1,2.9-0.1
		C-135.422-262.251-134.422-262.217-133.422-262.151"/>
</g>
</svg>
