<?xml version="1.0" encoding="utf-8"?>
<!-- Generator: Adobe Illustrator 16.0.0, SVG Export Plug-In . SVG Version: 6.00 Build 0)  -->
<!DOCTYPE svg PUBLIC "-//W3C//DTD SVG 1.1//EN" "http://www.w3.org/Graphics/SVG/1.1/DTD/svg11.dtd">
<svg version="1.1"
	 id="svg2" xmlns:dc="http://purl.org/dc/elements/1.1/" xmlns:cc="http://creativecommons.org/ns#" xmlns:rdf="http://www.w3.org/1999/02/22-rdf-syntax-ns#" xmlns:svg="http://www.w3.org/2000/svg" xmlns:sodipodi="http://sodipodi.sourceforge.net/DTD/sodipodi-0.dtd" xmlns:inkscape="http://www.inkscape.org/namespaces/inkscape" sodipodi:docname="MJ3tiao.svg" inkscape:version="0.47 r22583"
	 xmlns="http://www.w3.org/2000/svg" xmlns:xlink="http://www.w3.org/1999/xlink" x="0px" y="0px" width="74.7px" height="95.1px"
	 viewBox="0 0 74.7 95.1" enable-background="new 0 0 74.7 95.1" xml:space="preserve">
<sodipodi:namedview  showgrid="false" inkscape:cy="38.63154" inkscape:cx="-39.758833" inkscape:zoom="3.959798" borderopacity="1.0" bordercolor="#666666" pagecolor="#ffffff" id="base" inkscape:window-maximized="1" inkscape:window-y="25" inkscape:current-layer="layer1" inkscape:document-units="px" inkscape:window-x="0" inkscape:pageshadow="2" inkscape:pageopacity="0.0" inkscape:window-width="1440" inkscape:window-height="851">
	</sodipodi:namedview>
<g id="g2969" transform="translate(-139.65359,-3.2829958)">
	
		<path id="path2971" sodipodi:nodetypes="cscscscsccscccccccccccccsccscscscsccscccccccccccccsccscscscsccscccccccccccccsc" fill="#006C00" d="
		M181.953,47.033c-1.666-0.134-3.332-0.2-5-0.2c-1.667,0-3.3,0.066-4.9,0.2c0.133-5.601,0.2-11.167,0.2-16.7s-0.067-11.066-0.2-16.6
		c1.667,0.133,3.3,0.2,4.9,0.199c1.667,0.001,3.333-0.066,5-0.199c-0.133,5.533-0.199,11.066-0.199,16.6
		C181.754,35.933,181.82,41.5,181.953,47.033 M179.953,15.833c-1,0-2,0-3,0c-0.933,0-1.9,0-2.9,0c0.067,4,0.1,7.9,0.1,11.7h5.7
		C179.853,23.733,179.887,19.833,179.953,15.833 M179.853,31.333v-2h-5.7v2H179.853 M179.953,44.933
		c-0.066-4.267-0.1-8.166-0.1-11.699h-5.7c0,3.666-0.033,7.566-0.1,11.699c1-0.066,1.967-0.1,2.9-0.1
		C177.953,44.833,178.953,44.866,179.953,44.933 M201.553,87.933c-1.667-0.133-3.333-0.199-5-0.199s-3.3,0.066-4.899,0.199
		c0.133-5.6,0.199-11.166,0.199-16.699c0-5.534-0.066-11.067-0.199-16.601c1.666,0.134,3.299,0.2,4.899,0.2
		c1.667,0,3.333-0.066,5-0.2c-0.134,5.533-0.2,11.066-0.2,16.601C201.353,76.833,201.42,82.399,201.553,87.933 M199.553,56.733
		c-1,0-2,0-3,0c-0.933,0-1.899,0-2.899,0c0.066,4,0.1,7.899,0.1,11.699h5.699C199.453,64.633,199.486,60.733,199.553,56.733
		 M199.453,72.233v-2h-5.699v2H199.453 M199.553,85.833c-0.067-4.267-0.101-8.167-0.101-11.7h-5.699c0,3.667-0.033,7.566-0.1,11.7
		c1-0.066,1.967-0.1,2.899-0.1C197.553,85.733,198.553,85.767,199.553,85.833 M162.354,87.933c-1.667-0.133-3.333-0.199-5-0.199
		c-1.667,0-3.3,0.066-4.9,0.199c0.133-5.6,0.2-11.166,0.2-16.699c0-5.534-0.067-11.067-0.2-16.601c1.667,0.134,3.3,0.2,4.9,0.2
		c1.667,0,3.333-0.066,5-0.2c-0.134,5.533-0.2,11.066-0.2,16.601C162.154,76.833,162.22,82.399,162.354,87.933 M160.354,56.733
		c-1,0-2,0-3,0c-0.934,0-1.9,0-2.9,0c0.067,4,0.1,7.899,0.1,11.699h5.7C160.254,64.633,160.287,60.733,160.354,56.733
		 M160.254,72.233v-2h-5.7v2H160.254 M160.353,85.833c-0.066-4.267-0.1-8.167-0.1-11.7h-5.7c0,3.667-0.033,7.566-0.1,11.7
		c1-0.066,1.967-0.101,2.9-0.1C158.354,85.733,159.354,85.767,160.353,85.833"/>
</g>
</svg>
