<?xml version="1.0" encoding="utf-8"?>
<!-- Generator: Adobe Illustrator 16.0.0, SVG Export Plug-In . SVG Version: 6.00 Build 0)  -->
<!DOCTYPE svg PUBLIC "-//W3C//DTD SVG 1.1//EN" "http://www.w3.org/Graphics/SVG/1.1/DTD/svg11.dtd">
<svg version="1.1"
	 id="svg2" xmlns:dc="http://purl.org/dc/elements/1.1/" xmlns:cc="http://creativecommons.org/ns#" xmlns:rdf="http://www.w3.org/1999/02/22-rdf-syntax-ns#" xmlns:svg="http://www.w3.org/2000/svg" xmlns:sodipodi="http://sodipodi.sourceforge.net/DTD/sodipodi-0.dtd" xmlns:inkscape="http://www.inkscape.org/namespaces/inkscape" sodipodi:docname="MJ5tiao.svg" inkscape:version="0.47 r22583"
	 xmlns="http://www.w3.org/2000/svg" xmlns:xlink="http://www.w3.org/1999/xlink" x="0px" y="0px" width="74.7px" height="95.1px"
	 viewBox="0 0 74.7 95.1" enable-background="new 0 0 74.7 95.1" xml:space="preserve">
<sodipodi:namedview  showgrid="false" inkscape:cy="28.287796" inkscape:cx="-58.5747" inkscape:zoom="3.959798" borderopacity="1.0" bordercolor="#666666" pagecolor="#ffffff" id="base" inkscape:window-maximized="1" inkscape:window-y="25" inkscape:current-layer="svg2" inkscape:document-units="px" inkscape:window-x="0" inkscape:pageshadow="2" inkscape:pageopacity="0.0" inkscape:window-width="1440" inkscape:window-height="851">
	</sodipodi:namedview>
<g id="g3201" transform="translate(540.22478,517.97756)">
	<path id="path3203" sodipodi:nodetypes="cscscscsccscccccccccccccsc" fill="#9C0000" d="M-497.925-453.777
		c-1.666-0.134-3.332-0.2-5-0.2c-1.667,0-3.3,0.066-4.9,0.2c0.133-5.601,0.2-11.167,0.2-16.7s-0.067-11.066-0.2-16.601
		c1.667,0.134,3.3,0.2,4.9,0.2c1.667,0,3.333-0.066,5-0.2c-0.133,5.534-0.199,11.067-0.199,16.601
		C-498.125-464.878-498.058-459.311-497.925-453.777 M-499.925-484.977c-1,0-2,0-3,0c-0.933,0-1.9,0-2.9,0
		c0.067,4,0.1,7.899,0.1,11.7h5.7C-500.025-477.078-499.992-480.977-499.925-484.977 M-500.025-469.477v-2h-5.7v2H-500.025
		 M-499.925-455.878c-0.066-4.267-0.1-8.166-0.1-11.7h-5.7c0,3.667-0.033,7.567-0.1,11.7c1-0.066,1.967-0.1,2.9-0.1
		C-501.925-455.977-500.925-455.944-499.925-455.878"/>
</g>
<g id="g3205" transform="translate(-747.68574,-478.74125)" inkscape:label="Layer 1" inkscape:groupmode="layer">
	
		<path id="path3209" sodipodi:nodetypes="cscscscsccscccccccccccccsccscscscsccscccccccccccccsccscscscsccscccccccccccccsccscscscsccscccccccccccccsc" fill="#006C00" d="
		M809.586,563.391c-1.667-0.133-3.333-0.199-5-0.199s-3.3,0.066-4.899,0.199c0.133-5.6,0.199-11.166,0.199-16.699
		c0-5.534-0.066-11.067-0.199-16.601c1.666,0.134,3.299,0.2,4.899,0.2c1.667,0,3.333-0.066,5-0.2
		c-0.134,5.533-0.2,11.066-0.2,16.601C809.385,552.291,809.452,557.858,809.586,563.391 M807.586,532.192c-1,0-2,0-3,0
		c-0.933,0-1.899,0-2.899,0c0.066,4,0.1,7.899,0.1,11.699h5.699C807.485,540.091,807.519,536.192,807.586,532.192 M807.485,547.692
		v-2h-5.699v2H807.485 M807.586,561.291c-0.067-4.267-0.101-8.167-0.101-11.7h-5.699c0,3.667-0.033,7.566-0.1,11.7
		c1-0.066,1.967-0.1,2.899-0.1C805.586,561.192,806.586,561.225,807.586,561.291 M809.586,522.491c-1.667-0.134-3.333-0.2-5-0.2
		s-3.3,0.066-4.899,0.2c0.133-5.601,0.199-11.167,0.199-16.7s-0.066-11.066-0.199-16.6c1.666,0.133,3.299,0.199,4.899,0.199
		c1.667,0,3.333-0.066,5-0.199c-0.134,5.533-0.2,11.066-0.2,16.6C809.385,511.391,809.452,516.958,809.586,522.491 M807.586,491.291
		c-1,0-2,0-3,0c-0.933,0-1.899,0-2.899,0c0.066,4,0.1,7.9,0.1,11.7h5.699C807.485,499.192,807.519,495.291,807.586,491.291
		 M807.485,506.791v-2h-5.699v2H807.485 M807.586,520.391c-0.067-4.267-0.101-8.166-0.101-11.699h-5.699
		c0,3.666-0.033,7.566-0.1,11.699c1-0.066,1.967-0.1,2.899-0.1C805.586,520.291,806.586,520.324,807.586,520.391 M770.386,563.391
		c-1.667-0.133-3.333-0.199-5-0.199c-1.667,0-3.3,0.066-4.9,0.199c0.133-5.6,0.2-11.166,0.2-16.699c0-5.534-0.067-11.067-0.2-16.601
		c1.667,0.134,3.3,0.2,4.9,0.2c1.667,0,3.333-0.066,5-0.2c-0.134,5.533-0.2,11.066-0.2,16.601
		C770.186,552.291,770.252,557.858,770.386,563.391 M768.386,532.192c-1,0-2,0-3,0c-0.934,0-1.9,0-2.9,0
		c0.067,4,0.1,7.899,0.1,11.699h5.7C768.286,540.091,768.319,536.192,768.386,532.192 M768.286,547.692v-2h-5.7v2H768.286
		 M768.386,561.291c-0.067-4.267-0.1-8.167-0.1-11.7h-5.7c0,3.667-0.033,7.566-0.1,11.7c1-0.066,1.967-0.101,2.9-0.1
		C766.386,561.192,767.386,561.225,768.386,561.291 M770.386,522.491c-1.667-0.134-3.333-0.2-5-0.2c-1.667,0-3.3,0.066-4.9,0.2
		c0.133-5.601,0.2-11.167,0.2-16.7s-0.067-11.066-0.2-16.6c1.667,0.133,3.3,0.199,4.9,0.199c1.667,0,3.333-0.066,5-0.199
		c-0.134,5.533-0.2,11.066-0.2,16.6C770.186,511.391,770.252,516.958,770.386,522.491 M768.386,491.291c-1,0-2,0-3,0
		c-0.934,0-1.9,0-2.9,0c0.067,4,0.1,7.9,0.1,11.7h5.7C768.286,499.192,768.319,495.291,768.386,491.291 M768.286,506.791v-2h-5.7v2
		H768.286 M768.386,520.391c-0.067-4.267-0.1-8.166-0.1-11.7h-5.7c0,3.667-0.033,7.567-0.1,11.7c1-0.066,1.967-0.1,2.9-0.1
		C766.386,520.291,767.386,520.324,768.386,520.391"/>
</g>
</svg>
