<?xml version="1.0" encoding="utf-8"?>
<!-- Generator: Adobe Illustrator 16.0.0, SVG Export Plug-In . SVG Version: 6.00 Build 0)  -->
<!DOCTYPE svg PUBLIC "-//W3C//DTD SVG 1.1//EN" "http://www.w3.org/Graphics/SVG/1.1/DTD/svg11.dtd">
<svg version="1.1"
	 id="svg2" xmlns:dc="http://purl.org/dc/elements/1.1/" xmlns:cc="http://creativecommons.org/ns#" xmlns:rdf="http://www.w3.org/1999/02/22-rdf-syntax-ns#" xmlns:svg="http://www.w3.org/2000/svg" xmlns:sodipodi="http://sodipodi.sourceforge.net/DTD/sodipodi-0.dtd" xmlns:inkscape="http://www.inkscape.org/namespaces/inkscape" sodipodi:docname="MJ7tiao.svg" inkscape:version="0.47 r22583"
	 xmlns="http://www.w3.org/2000/svg" xmlns:xlink="http://www.w3.org/1999/xlink" x="0px" y="0px" width="74.7px" height="95.1px"
	 viewBox="0 0 74.7 95.1" enable-background="new 0 0 74.7 95.1" xml:space="preserve">
<sodipodi:namedview  showgrid="false" inkscape:cy="22.877167" inkscape:cx="12.586895" inkscape:zoom="3.959798" borderopacity="1.0" bordercolor="#666666" pagecolor="#ffffff" id="base" inkscape:window-maximized="1" inkscape:window-y="25" inkscape:current-layer="g3205" inkscape:document-units="px" inkscape:window-x="0" inkscape:pageshadow="2" inkscape:pageopacity="0.0" inkscape:window-width="1440" inkscape:window-height="851">
	</sodipodi:namedview>
<path id="path3480" sodipodi:nodetypes="cscscscscccccccccccccccccc" fill="#9C0000" d="M42.299,30.9
	c-1.666-0.133-3.332-0.199-5-0.199c-1.667,0-3.333,0.066-5,0.199c0.133-4.199,0.2-8.399,0.2-12.6s-0.067-8.4-0.2-12.6
	c1.667,0.133,3.333,0.199,5,0.199c1.667,0,3.333-0.066,5-0.199C42.167,9.9,42.1,14.1,42.1,18.3S42.167,26.7,42.299,30.9 M40.299,7.8
	c-1,0-2,0-3,0h-3c0.067,1.667,0.133,4.233,0.2,7.7h5.6C40.1,15.033,40.167,12.467,40.299,7.8 M40.1,19.3v-2h-5.6v2H40.1
	 M40.299,28.8c-0.133-4.467-0.199-7.033-0.199-7.7h-5.6c0,0.4-0.067,2.967-0.2,7.7c1-0.066,2-0.1,3-0.1L40.299,28.8"/>
<path id="path3485" sodipodi:nodetypes="cscscscscccccccccccccccccccscscscscccccccccccccccccccscscscscccccccccccccccccccscscscscccccccccccccccccccscscscscccccccccccccccccccscscscscccccccccccccccccc" fill="#006C00" d="
	M61.647,89.148c-1.666-0.134-3.333-0.2-5-0.2c-1.666,0-3.333,0.066-5,0.2c0.134-4.2,0.201-8.4,0.201-12.601
	c0-4.199-0.067-8.399-0.201-12.6c1.667,0.134,3.334,0.2,5,0.2c1.667,0,3.334-0.066,5-0.2c-0.133,4.2-0.199,8.4-0.199,12.6
	C61.448,80.747,61.514,84.948,61.647,89.148 M59.647,66.047c-1,0-2,0-3,0h-3c0.066,1.667,0.134,4.233,0.201,7.7h5.6
	C59.448,73.281,59.514,70.714,59.647,66.047 M59.448,77.547v-2h-5.6v2H59.448 M59.647,87.047c-0.133-4.466-0.199-7.033-0.199-7.699
	h-5.6c0,0.399-0.067,2.966-0.201,7.699c1-0.066,2-0.1,3-0.1L59.647,87.047 M61.647,59.948c-1.666-0.133-3.333-0.2-5-0.2
	c-1.666,0-3.333,0.067-5,0.2c0.134-4.2,0.201-8.4,0.201-12.6c0-4.2-0.067-8.4-0.201-12.601c1.667,0.134,3.334,0.2,5,0.2
	c1.667,0,3.334-0.066,5-0.2c-0.133,4.2-0.199,8.4-0.199,12.601C61.448,51.547,61.514,55.747,61.647,59.948 M59.647,36.848
	c-1,0-2,0-3,0h-3c0.066,1.666,0.134,4.233,0.201,7.699h5.6C59.448,44.081,59.514,41.514,59.647,36.848 M59.448,48.348v-2h-5.6v2
	H59.448 M59.647,57.848c-0.133-4.467-0.199-7.033-0.199-7.7h-5.6c0,0.399-0.067,2.967-0.201,7.7c1-0.067,2-0.101,3-0.101
	L59.647,57.848 M22.547,89.148c-1.667-0.134-3.333-0.2-5-0.2s-3.333,0.066-5,0.2c0.133-4.2,0.2-8.4,0.2-12.601
	c0-4.199-0.067-8.399-0.2-12.6c1.667,0.134,3.333,0.2,5,0.2s3.333-0.066,5-0.2c-0.133,4.2-0.2,8.4-0.2,12.6
	C22.348,80.747,22.414,84.948,22.547,89.148 M20.547,66.047c-1,0-2,0-3,0h-3c0.067,1.667,0.133,4.233,0.2,7.7h5.6
	C20.348,73.281,20.414,70.714,20.547,66.047 M20.348,77.547v-2h-5.6v2H20.348 M20.547,87.047c-0.133-4.466-0.2-7.033-0.2-7.699h-5.6
	c0,0.399-0.067,2.967-0.2,7.699c1-0.066,2-0.1,3-0.1L20.547,87.047 M22.547,59.948c-1.667-0.133-3.333-0.2-5-0.2s-3.333,0.067-5,0.2
	c0.133-4.2,0.2-8.399,0.2-12.6s-0.067-8.4-0.2-12.601c1.667,0.134,3.333,0.2,5,0.2s3.333-0.066,5-0.2c-0.133,4.2-0.2,8.4-0.2,12.601
	S22.414,55.747,22.547,59.948 M20.547,36.848c-1,0-2,0-3,0h-3c0.067,1.666,0.133,4.233,0.2,7.7h5.6
	C20.348,44.081,20.414,41.514,20.547,36.848 M20.348,48.348v-2h-5.6v2H20.348 M20.547,57.848c-0.133-4.467-0.2-7.033-0.2-7.7h-5.6
	c0,0.399-0.067,2.967-0.2,7.7c1-0.067,2-0.101,3-0.101L20.547,57.848 M42.047,89.148c-1.666-0.134-3.334-0.2-5-0.2
	c-1.667,0-3.333,0.066-5,0.2c0.133-4.2,0.2-8.4,0.2-12.601c0-4.199-0.067-8.399-0.2-12.6c1.667,0.134,3.333,0.2,5,0.2
	c1.666,0,3.334-0.066,5-0.2c-0.133,4.2-0.199,8.4-0.199,12.6C41.848,80.747,41.915,84.948,42.047,89.148 M40.047,66.047
	c-1,0-2,0-3,0h-3c0.067,1.667,0.133,4.233,0.2,7.7h5.601C39.848,73.281,39.915,70.714,40.047,66.047 M39.848,77.547v-2h-5.601v2
	H39.848 M40.047,87.047c-0.133-4.466-0.199-7.033-0.199-7.699h-5.601c0,0.399-0.067,2.967-0.2,7.699c1-0.066,2-0.1,3-0.1
	L40.047,87.047 M42.047,59.948c-1.666-0.133-3.334-0.2-5-0.2c-1.667,0-3.333,0.067-5,0.2c0.133-4.2,0.2-8.399,0.2-12.6
	s-0.067-8.4-0.2-12.601c1.667,0.134,3.333,0.2,5,0.2c1.666,0,3.334-0.066,5-0.2c-0.133,4.2-0.199,8.4-0.199,12.601
	S41.915,55.747,42.047,59.948 M40.047,36.848c-1,0-2,0-3,0h-3c0.067,1.666,0.133,4.233,0.2,7.7h5.601
	C39.848,44.081,39.915,41.514,40.047,36.848 M39.848,48.348v-2h-5.601v2H39.848 M40.047,57.848c-0.133-4.467-0.199-7.033-0.199-7.7
	h-5.601c0,0.399-0.067,2.967-0.2,7.7c1-0.067,2-0.101,3-0.101L40.047,57.848"/>
</svg>
