<?xml version="1.0" encoding="utf-8"?>
<!-- Generator: Adobe Illustrator 16.0.0, SVG Export Plug-In . SVG Version: 6.00 Build 0)  -->
<!DOCTYPE svg PUBLIC "-//W3C//DTD SVG 1.1//EN" "http://www.w3.org/Graphics/SVG/1.1/DTD/svg11.dtd">
<svg version="1.1"
	 id="svg3739" xmlns:dc="http://purl.org/dc/elements/1.1/" xmlns:cc="http://creativecommons.org/ns#" xmlns:rdf="http://www.w3.org/1999/02/22-rdf-syntax-ns#" xmlns:svg="http://www.w3.org/2000/svg" xmlns:sodipodi="http://sodipodi.sourceforge.net/DTD/sodipodi-0.dtd" xmlns:inkscape="http://www.inkscape.org/namespaces/inkscape" sodipodi:docname="MJGreendragon.svg" inkscape:version="0.47 r22583"
	 xmlns="http://www.w3.org/2000/svg" xmlns:xlink="http://www.w3.org/1999/xlink" x="0px" y="0px" width="74.7px" height="95.1px"
	 viewBox="0 0 74.7 95.1" enable-background="new 0 0 74.7 95.1" xml:space="preserve">
<sodipodi:namedview  showgrid="false" inkscape:cy="16.394961" inkscape:cx="14.333723" inkscape:zoom="1.922232" borderopacity="1.0" bordercolor="#666666" pagecolor="#ffffff" id="base" inkscape:window-maximized="1" inkscape:window-y="25" inkscape:current-layer="layer1" inkscape:document-units="px" inkscape:window-x="0" inkscape:pageshadow="2" inkscape:pageopacity="0.0" inkscape:window-width="1440" inkscape:window-height="851">
	</sodipodi:namedview>
<g id="g4113" transform="translate(282.73007,401.78016)">
	
		<path id="path4115" sodipodi:nodetypes="ccccssccccccsccccsccccccscscsccscssssccscssccscscsccccccccccccccsccccssssscccccscccssccsscssccccccsscsccccsscccccccccccccsccc" fill="#004C00" d="
		M-238.63-368.73c1.467-0.8,2.833-2.033,4.1-3.7c1.334-1.666,2.134-3.133,2.4-4.399c1.6,0.8,3.133,1.666,4.6,2.6
		c-0.199,0.4-0.467,0.767-0.8,1.1c-0.333,0.334-0.667,0.634-1,0.9s-0.833,0.634-1.5,1.1c-0.667,0.4-1.233,0.733-1.7,1
		c-0.4,0.2-1.1,0.601-2.1,1.2c-1,0.533-1.801,0.967-2.4,1.3c4.733,5.867,11.667,10.034,20.801,12.5l-3.801,0.9
		c-2.533,0.6-4.232,0.9-5.1,0.9c-1.4,0-2.367-0.2-2.9-0.601c-1.4-1.133-4.866-4.7-10.4-10.7l-5.299-6
		c-2.134-2.333-3.967-4.1-5.5-5.3c0.6-0.399,1.133-0.6,1.6-0.6c1.466,0,2.633,0.7,3.5,2.1c2-1.267,3-3.5,3-6.7
		c2.934,0,4.733,0.601,5.4,1.801l-7,6C-241.397-371.664-240.03-370.13-238.63-368.73 M-245.33-360.83
		c0.467,0.267,0.767,0.399,0.899,0.399c0.134,0,0.967-0.333,2.5-1c1.534-0.733,2.367-1.1,2.5-1.1c0.268,0,1.467,0.6,3.601,1.8
		c-1.467,3.4-2.2,5.6-2.2,6.6c0,0.534,0.268,0.934,0.801,1.2c0.533,0.2,1.866,0.434,4,0.7c1.732,0.2,2.6,0.5,2.6,0.9
		c0,0.333-0.633,0.767-1.9,1.3c-1.267,0.467-2.232,0.7-2.9,0.7c-3.066,0-4.6-1.334-4.6-4c0-0.267,0.033-0.9,0.1-1.9
		c0.067-1,0.101-1.633,0.101-1.9c0-1.199-0.2-2.133-0.601-2.8c-1.732,0.4-2.933,0.9-3.6,1.5c-0.066,0.2-0.166,0.7-0.3,1.5
		s-0.233,1.334-0.3,1.601c0,0.199-0.066,0.633-0.2,1.3c-0.133,0.667-0.267,1.133-0.4,1.399c-0.066,0.2-0.2,0.601-0.4,1.2
		c-0.2,0.533-0.4,0.934-0.6,1.2c-0.2,0.2-0.467,0.533-0.8,1c-0.267,0.4-0.567,0.733-0.9,1c-0.333,0.2-0.733,0.467-1.2,0.8
		c-0.4,0.267-0.867,0.5-1.4,0.7c2.333-3.134,3.5-6.434,3.5-9.9c0-1.533-0.267-3.1-0.8-4.699h1.8
		C-245.964-361.33-245.73-361.164-245.33-360.83 M-233.53-343.93c0,0.2-0.267,0.767-0.8,1.7c-0.533,0.866-1.167,1.866-1.899,3
		c-0.667,1.066-1.101,1.8-1.301,2.2l4.5,3.2c1.934,1.733,2.9,3.233,2.9,4.5l-0.5,2c-1.733-0.801-4.801-3.101-9.2-6.9
		c-3.466,3.134-7.267,4.7-11.4,4.7h-1.1c1.8-0.8,3.833-1.934,6.1-3.4c2.333-1.533,3.5-2.5,3.5-2.899c0-0.4-0.867-1.267-2.601-2.601
		l-3.8-2.8c1.667,0.467,4.3,1.366,7.9,2.7c0.533-0.2,1.033-0.834,1.5-1.9c0.533-1.133,0.799-2,0.799-2.6c0-0.8-0.466-1.2-1.399-1.2
		c-0.2,0-1.033,0.233-2.5,0.7c-1.466,0.467-2.267,0.7-2.4,0.7c-0.333,0-0.867-0.167-1.6-0.5c-0.733-0.334-1.2-0.667-1.4-1l10.6-3
		C-234.897-346.13-233.53-344.997-233.53-343.93 M-259.33-359.43c0.2,0,1.167-0.3,2.9-0.899c1.8-0.667,2.8-1,3-1
		c0.933,0,2.167,0.767,3.7,2.3l-4.3,5.399c0.2,0.134,0.767,0.967,1.7,2.5c-2.933,0.2-5.066,0.434-6.4,0.7s-2.033,0.467-2.1,0.601
		c-0.066,0.066-0.233,0.333-0.5,0.8c-0.133,0.133-0.5,1.3-1.1,3.5c0.333,0,1.134-0.066,2.4-0.2c1.267-0.133,1.933-0.2,2-0.2
		c0.667,0,1.533,0.3,2.6,0.9c1.134,0.533,1.7,1.033,1.7,1.5c0,0.133-0.167,0.666-0.5,1.6s-0.5,1.467-0.5,1.601
		c-0.267,2-1.066,5.066-2.4,9.199c-0.8,1.934-2,3.2-3.6,3.801c-0.667-0.667-2.5-2.9-5.5-6.7l5,1.2c1.067,0,1.934-0.9,2.6-2.7
		c0.733-1.8,1.1-3.733,1.1-5.8c0-1.667-0.767-2.5-2.3-2.5c-1.2,0-3.333,1.133-6.4,3.399c-0.667-0.2-1-0.633-1-1.3
		c0-0.066,0.2-0.434,0.6-1.1c0.467-0.733,0.967-1.667,1.5-2.801c0.6-1.133,1.033-2.1,1.3-2.899c0.2-0.533,0.3-2.101,0.3-4.7
		c1.867,1.066,3.3,1.6,4.3,1.6c0.867,0,1.733-0.399,2.6-1.199c0.867-0.801,1.3-1.567,1.3-2.301v-2.6l-5.2-1.4
		c-4.4,5-9.067,8.467-14,10.4l12.2-12.6c-1.4-1.4-3.1-3.4-5.1-6h2.7c0.533,0,1.167,0.467,1.9,1.399l1.6,2
		c1.6-1.467,3.133-4.666,4.6-9.6c-0.267-0.134-0.533-0.2-0.8-0.2l-4.3,0.7c-0.467,0-1.5-0.367-3.1-1.101c6-2.199,9.067-3.3,9.2-3.3
		c0.267,0,1.8,0.8,4.6,2.4l-9.1,15.2C-259.863-359.563-259.597-359.43-259.33-359.43"/>
</g>
</svg>
