<?xml version="1.0" encoding="utf-8"?>
<!-- Generator: Adobe Illustrator 16.0.0, SVG Export Plug-In . SVG Version: 6.00 Build 0)  -->
<!DOCTYPE svg PUBLIC "-//W3C//DTD SVG 1.1//EN" "http://www.w3.org/Graphics/SVG/1.1/DTD/svg11.dtd">
<svg version="1.1"
	 id="svg2" xmlns:dc="http://purl.org/dc/elements/1.1/" xmlns:cc="http://creativecommons.org/ns#" xmlns:rdf="http://www.w3.org/1999/02/22-rdf-syntax-ns#" xmlns:svg="http://www.w3.org/2000/svg" xmlns:sodipodi="http://sodipodi.sourceforge.net/DTD/sodipodi-0.dtd" xmlns:inkscape="http://www.inkscape.org/namespaces/inkscape" sodipodi:docname="绘图-1.svg" inkscape:version="0.47 r22583"
	 xmlns="http://www.w3.org/2000/svg" xmlns:xlink="http://www.w3.org/1999/xlink" x="0px" y="0px" width="74.7px" height="95.1px"
	 viewBox="0 0 74.7 95.1" enable-background="new 0 0 74.7 95.1" xml:space="preserve">
<sodipodi:namedview  showgrid="false" inkscape:cy="39.242939" inkscape:cx="88.741647" inkscape:zoom="2.1748383" borderopacity="1.0" bordercolor="#666666" pagecolor="#ffffff" id="base" inkscape:window-maximized="1" inkscape:window-y="25" inkscape:current-layer="layer1" inkscape:document-units="px" inkscape:window-x="0" inkscape:pageshadow="2" inkscape:pageopacity="0.0" inkscape:window-width="1440" inkscape:window-height="851">
	</sodipodi:namedview>
<g id="g4170" transform="translate(453.0788,360.54649)">
	
		<path id="path4172" sodipodi:nodetypes="ccccccccccsssscscccscccccsccccccccccccsssccscsccccsccccccscsccccscscccccccccccsscccscsccsssssc" fill="#9C0000" d="
		M-424.479-348.742c-0.467,0.6-1.434,1.133-2.9,1.6c-1.467,0.4-2.833,0.767-4.1,1.101c-1.2,0.333-1.8,0.767-1.8,1.3v1.399l11.6-2.3
		c1.4,0.467,2.233,1.101,2.5,1.9l-9.6,1.3c6.267,5.601,11.867,8.7,16.8,9.3c0,0.134,0.133,0.334,0.4,0.601
		c-1.801,0.6-3.634,0.899-5.5,0.899c-0.533,0-0.934,0-1.2,0c-0.2,0-0.466-0.033-0.8-0.1s-0.567-0.134-0.7-0.2
		c-0.066-0.066-0.3-0.2-0.7-0.4c-0.333-0.267-0.6-0.5-0.8-0.699c-0.2-0.2-0.6-0.533-1.2-1c-0.534-0.533-1.034-1-1.5-1.4l-3.5-3.9
		c-1.867-1.999-3.233-2.999-4.1-3c-1.4,0.001-2.434,0.501-3.1,1.5l-2.1,3.801c0,0.333,0.4,0.5,1.2,0.5l6.9-1.301l3.6,2.101
		c-0.133,0.8-0.267,1.733-0.4,2.8c0,0.066,0,0.333,0,0.8c0.066,0.467,0.1,0.934,0.1,1.4v4.5c0,0.733-0.467,1.8-1.4,3.2
		c-0.333,0-0.633-0.2-0.9-0.601c-0.2-0.399-0.467-0.933-0.8-1.6c-0.333-0.733-0.733-1.333-1.2-1.8c-1.467,0-3.2,0.166-5.2,0.5
		c-0.467,0.6-0.833,1.467-1.1,2.6c-0.733-0.267-1.1-0.733-1.1-1.4l-0.3-10.5c-1.4,1.4-3.067,2.801-5,4.2c-1.934,1.334-3.3,2-4.1,2
		c0,0-0.034,0-0.1,0c-0.067,0-0.2,0-0.4,0c-0.133,0-0.3,0-0.5,0c6.667-4.467,10.533-8.3,11.6-11.5c-0.2-0.133-0.534-0.199-1-0.2
		c-0.2,0.001-0.967,0.167-2.3,0.5c-1.333,0.268-2.167,0.4-2.5,0.4c-0.933,0-1.6-0.434-2-1.3c1.8-0.066,4.533-0.467,8.2-1.2
		c0.533-0.133,0.833-0.733,0.9-1.8v-1.2c-0.133,0.066-0.467,0.101-1,0.1c-0.733,0.001-1.8-0.066-3.2-0.199
		c1.067-0.134,2.5-0.467,4.3-1c0.4-0.267,0.733-1.134,1-2.601c-2.267-0.199-4-0.3-5.2-0.3c0-0.133-0.1-0.333-0.3-0.6
		c1.267-0.2,3.033-0.567,5.3-1.101c0.267-0.467,0.4-1,0.4-1.6c0-0.333-0.1-0.867-0.3-1.601c-0.133-0.8-0.2-1.366-0.2-1.699
		c0-0.2,0.034-0.4,0.1-0.601h0.8c0.466,0,1.3,0.467,2.5,1.4l-1,3.1c0.333,0.334,0.633,0.5,0.9,0.5c0.2,0,1.1-0.233,2.7-0.7
		c1.667-0.466,2.6-0.699,2.8-0.699c0.466,0,1.066,0.133,1.8,0.399v0.601c-1.8,0.399-4.433,1.133-7.9,2.199
		c-0.2,0.067-0.467,0.367-0.8,0.9c-0.267,0.533-0.4,0.9-0.4,1.1v0.7l0.3,0.3c0.4-0.066,1.167-0.3,2.3-0.699
		c1.2-0.467,1.867-0.7,2-0.7H-424.479 M-427.879-327.742c0-0.667,0.033-1.5,0.1-2.5c0.067-1,0.1-1.6,0.1-1.8
		c0-2.934-0.733-4.434-2.2-4.5l-5.5,1v3.5c2.2-0.533,3.566-0.8,4.1-0.801c1.067,0.001,1.667,0.233,1.8,0.7
		c-1.934,0.667-3.333,1-4.2,1s-1.433-0.033-1.7-0.1v3.5c0.933-0.066,1.8-0.167,2.6-0.3c0.8-0.134,1.4-0.233,1.8-0.301
		c0.4-0.066,0.667-0.1,0.8-0.1c0.067,0,0.167,0.033,0.3,0.1c0.133,0.001,0.366,0.067,0.7,0.2
		C-428.845-328.008-428.412-327.875-427.879-327.742"/>
</g>
<g id="g4174" transform="translate(515.17133,402.17609)">
	<path id="path4176" sodipodi:nodetypes="ccscccscccsccscccsscscsscscccccccccsccssccscccccsssscccsc" fill="#9C0000" d="
		M-473.079-368.759c-1.8,4.601-2.699,7.367-2.699,8.301c0,1.267,1.133,4.666,3.399,10.199c0.267,0.867,0.5,2.267,0.7,4.2
		c0.6-1.467,1.867-3.833,3.8-7.1c2-3.267,3-5.7,3-7.3c0-1.267-0.2-3-0.601-5.2c1.867,1.8,3.301,3.899,4.301,6.3
		c2-1.333,4.5-2.2,7.5-2.6c-0.334,0.267-0.834,0.699-1.5,1.3c-0.667,0.6-1.2,1.1-1.6,1.5c-0.4,0.333-0.834,0.767-1.301,1.3
		c-0.467,0.467-0.8,0.934-1,1.4c-0.199,0.466-0.333,0.933-0.4,1.399c-0.066,0.8-0.166,1.9-0.299,3.3
		c-0.067,1.4-0.134,2.434-0.201,3.101c0,0.666-0.066,1.566-0.199,2.7c-0.133,1.066-0.268,1.866-0.4,2.399s-0.333,1.167-0.6,1.9
		c-0.2,0.733-0.467,1.3-0.801,1.7c-0.266,0.333-0.633,0.699-1.1,1.1c-0.467,0.333-1,0.566-1.6,0.7c-0.6,0.133-1.268,0.2-2,0.2
		c-3.334,0-5.133-2-5.4-6c-1.133,2.666-3,4-5.6,4c-3.733,0-7-2.787-6-8.101l1.9-10.1c-0.133-3.066-1.533-6.267-4.2-9.601
		c0.4,0.2,1.034,0.534,1.9,1c0.933,0.4,1.6,0.733,2,1c0.466,0.2,1,0.567,1.6,1.101c0.6,0.467,1.1,1,1.5,1.6
		C-477.645-365.458-475.679-367.358-473.079-368.759 M-463.479-361.059c0,0.267,0,0.5,0,0.7c0,1.733-0.6,3.634-1.799,5.7
		c-1.134,2.066-2.301,4.1-3.5,6.1c-1.201,1.934-1.801,3.601-1.801,5c0,2.733,1.334,4.101,4,4.101c3.4,0,5.1-2.834,5.1-8.5v-5.4
		c0-0.533,0.301-1.467,0.9-2.8c0.6-1.334,1.233-2.3,1.9-2.9c-1.133,0.601-2.367,1.367-3.7,2.3
		C-462.379-358.425-462.745-359.858-463.479-361.059 M-482.279-348.158c0,1.866,0.4,3.467,1.2,4.8c0.866,1.333,1.966,2,3.3,2
		c3.067,0,4.6-1.8,4.6-5.4c0-1.466-0.667-3.899-2-7.3c-1.334-3.399-2-5.566-2-6.5c0-1,0.233-2.233,0.699-3.7
		c-1.066,1.467-1.733,3.067-2,4.801c-0.6-1.067-1.633-2.467-3.1-4.2c0.8,2.267,1.2,4.066,1.2,5.399c0,0.267-0.333,1.967-1,5.101
		C-481.979-350.092-482.279-348.425-482.279-348.158"/>
</g>
<g id="g4178" transform="translate(359.23038,470.28106)">
	
		<path id="path4180" sodipodi:nodetypes="cccccccsscccccsccsssccssscccssccccssscccccccccccccscccccccccssccscccccccc" fill="#006C00" d="
		M-291.948-406.903l-2.3,1.5c-0.4,0.267-0.7,0.5-0.9,0.7c-0.133,0.2-0.3,0.434-0.5,0.7c-0.2,0.2-0.434,0.6-0.699,1.2
		c-0.268,0.533-0.567,1.133-0.9,1.8c-0.268,0.667-0.768,1.733-1.5,3.2c-0.667,1.467-1.4,3-2.2,4.6c-0.333,0.667-1.034,1.4-2.101,2.2
		s-2.633,1.866-4.699,3.2c-2,1.399-3.768,2.699-5.301,3.899l1.101-4.899c0.667-3.601,1.733-6.601,3.2-9
		c1.467-2.467,3.266-4.267,5.4-5.4c2.199-1.2,4.066-2.033,5.6-2.5S-294.281-406.569-291.948-406.903 M-311.048-405.003
		c-0.732,2.133-1.199,3.866-1.399,5.2c-0.2,1.333-0.3,3.166-0.3,5.5c0,0.333,0,0.933,0,1.8c0,0.866,0,1.566,0,2.1h-4
		c0-0.866,0-1.833,0-2.899c0-1,0-1.634,0-1.9c0-0.467,0-0.833,0-1.1c0-0.334,0-0.7,0-1.101c0.066-0.399,0.1-0.733,0.1-1
		c0.066-0.267,0.166-0.7,0.301-1.3c0.199-0.667,0.332-1.2,0.399-1.6c0.066-0.467,0.233-1.267,0.5-2.4c0.267-1.133,0.5-2.133,0.7-3
		C-313.948-406.302-312.714-405.736-311.048-405.003 M-319.148-406.802c0.066,0.467,0.133,1.566,0.2,3.3
		c0.134,1.667,0.233,2.767,0.3,3.3s0.166,1.533,0.301,3c0.133,1.467,0.266,2.5,0.399,3.1c0.134,0.667,0.3,1.634,0.5,2.9
		c0.267,1.267,0.533,2.267,0.8,3c0.334,0.8,0.7,1.733,1.1,2.8c0.467,1.067,0.967,2.033,1.5,2.9c0.533,0.934,1.134,1.866,1.801,2.8
		l-3.2,2.3c-5-6.267-7.5-16.066-7.5-29.399c0.2,0.333,0.466,0.399,0.8,0.199C-321.548-406.603-320.548-406.669-319.148-406.802
		 M-296.948-404.703c-0.333,0-0.833,0.1-1.5,0.3c-0.667,0.134-1.634,0.567-2.899,1.3c-1.201,0.667-2.4,1.567-3.601,2.7
		c-1.134,1.067-2.267,2.7-3.399,4.9c-1.067,2.133-1.834,4.6-2.301,7.399c3-1.6,5.3-3.1,6.9-4.5c1.6-1.333,2.633-2.433,3.1-3.3
		c0.467-0.933,1-2.267,1.6-4C-298.381-401.703-297.681-403.302-296.948-404.703 M-313.148-404.603c-0.066,0-0.199,0-0.4,0
		c-0.199-0.066-0.333-0.1-0.399-0.1c-0.934,3.2-1.399,6.167-1.399,8.9c0,0.267,0,0.833,0,1.699c0,0.867-0.601,2.2,0,2.2h1.199
		c-0.066-0.8-0.1-1.6-0.1-2.399C-314.247-395.969-313.881-399.403-313.148-404.603 M-314.847-379.403l0.5-0.6
		c-2.135-3.533-3.601-7.167-4.4-10.9c-0.801-3.666-1.334-8.433-1.6-14.3c-0.135,0-0.467,0.033-1,0.1c0,5.067,0.5,9.7,1.5,13.9
		c1,4.267,1.966,7.3,2.899,9.1C-315.948-380.302-315.247-379.403-314.847-379.403"/>
</g>
</svg>
