<?xml version="1.0" encoding="utf-8"?>
<!-- Generator: Adobe Illustrator 16.0.0, SVG Export Plug-In . SVG Version: 6.00 Build 0)  -->
<!DOCTYPE svg PUBLIC "-//W3C//DTD SVG 1.1//EN" "http://www.w3.org/Graphics/SVG/1.1/DTD/svg11.dtd">
<svg version="1.1"
	 id="svg2" xmlns:dc="http://purl.org/dc/elements/1.1/" xmlns:cc="http://creativecommons.org/ns#" xmlns:rdf="http://www.w3.org/1999/02/22-rdf-syntax-ns#" xmlns:svg="http://www.w3.org/2000/svg" xmlns:sodipodi="http://sodipodi.sourceforge.net/DTD/sodipodi-0.dtd" xmlns:inkscape="http://www.inkscape.org/namespaces/inkscape" sodipodi:docname="绘图-1.svg" inkscape:version="0.47 r22583"
	 xmlns="http://www.w3.org/2000/svg" xmlns:xlink="http://www.w3.org/1999/xlink" x="0px" y="0px" width="74.7px" height="95.1px"
	 viewBox="0 0 74.7 95.1" enable-background="new 0 0 74.7 95.1" xml:space="preserve">
<sodipodi:namedview  showgrid="false" inkscape:cy="52.575327" inkscape:cx="42.200435" inkscape:zoom="2.1748383" borderopacity="1.0" bordercolor="#666666" pagecolor="#ffffff" id="base" inkscape:window-maximized="1" inkscape:window-y="25" inkscape:current-layer="layer1" inkscape:document-units="px" inkscape:window-x="0" inkscape:pageshadow="2" inkscape:pageopacity="0.0" inkscape:window-width="1440" inkscape:window-height="851">
	</sodipodi:namedview>
<g id="g4269" transform="translate(442.7987,464.92598)">
	
		<path id="path4271" sodipodi:nodetypes="ccsccccsccccsccccsscsccccccccsssssscscccscscccccccssscscscccccccscccccsccccccscccccscccccccccccscscsccccccccccscccccccccccccccccsccccccccsscccccsscsssccscccscscscc" fill="#9C0000" d="
		M-423.799-440.426c0.267,0,1.4-0.233,3.4-0.7c2.067-0.533,3.233-0.8,3.5-0.8c0.333,0,1.367,0.467,3.1,1.399l-4.4,5.4
		c2.333,2.4,7.066,4.167,14.199,5.3c0.334,0.067,0.701,0.267,1.101,0.601c-2.867,1.066-5.167,1.6-6.9,1.6c-0.867,0-2.1-0.5-3.7-1.5
		c-1.533-1.066-2.933-2.1-4.2-3.1c-1.2-1-1.833-1.5-1.9-1.5c-0.667,0.733-2.2,1.633-4.6,2.699c-2.4,1-3.867,1.5-4.4,1.5
		c-0.133,0-0.5-0.066-1.1-0.199c-0.533-0.2-1-0.301-1.4-0.301c3.867-0.8,7.233-2.399,10.1-4.8c0-0.2-0.733-0.8-2.2-1.8
		c-1.4-1.066-2.367-1.6-2.9-1.6c-0.2,0-0.567,0.3-1.1,0.899c-0.533,0.601-1.434,1.434-2.7,2.5c-1.2,1.067-2.6,2-4.2,2.8
		c-1.467,0.733-2.3,1.101-2.5,1.101h-0.7c5.867-3.733,9.767-7.7,11.7-11.9v-0.399c-0.2-0.2-0.333-0.301-0.4-0.301l-1.3,0.2v-7.3
		c0-0.4-0.3-1.467-0.9-3.2c0.133,0,0.467,0.033,1,0.101c0.533,0.066,0.833,0.1,0.9,0.1c0.2,0,0.4-0.033,0.6-0.1
		c0.2-0.067,0.367-0.134,0.5-0.2s0.267-0.167,0.4-0.3c0.133-0.2,0.233-0.334,0.3-0.4c0.133-0.133,0.233-0.333,0.3-0.6
		c0.133-0.267,0.233-0.434,0.3-0.5c0.067-0.134,0.133-0.334,0.2-0.601c0.133-0.333,0.233-0.533,0.3-0.6v-0.5
		c-0.066-0.066-0.4-0.1-1-0.101c-0.333,0.001-1.367,0.167-3.1,0.5c-1.733,0.268-2.767,0.4-3.1,0.4c-0.2,0-0.667-0.167-1.4-0.5
		c-0.667-0.399-1.066-0.8-1.2-1.2l22.1-2.6c1.866,0,3,0.566,3.4,1.7l-13.8,1.5c0.2,0.066,0.434,0.233,0.7,0.5
		c-0.6,0.733-1.533,1.7-2.8,2.899c0.066,0.067,0.167,0.101,0.3,0.101c0.533,0,1.867-0.2,4-0.601c2.133-0.399,3.3-0.6,3.5-0.6
		c0.867,0,1.9,0.5,3.1,1.5c-0.534,0.934-0.967,2.767-1.3,5.5c-0.333,2.733-0.8,4.434-1.4,5.1c-1.133-0.733-1.833-1.1-2.1-1.1
		c-0.2,0-1.167,0.133-2.9,0.399c-1.667,0.268-2.867,0.434-3.6,0.5l-0.3,0.301l1.1,1l-1.2,1.699
		C-424.399-440.459-424.199-440.426-423.799-440.426 M-395.399-408.826c-1.333,0-2-0.666-2-2c0-0.666,0.2-1.133,0.601-1.399
		l6.399-3.601l-3.7,6.3C-394.366-409.126-394.798-408.893-395.399-408.826 M-403.599-414.326c0,1.267-0.666,1.9-2,1.9
		c-1.267,0-1.9-0.634-1.9-1.9v-0.2l1.9-12.399L-403.599-414.326 M-379.298-400.726l-12.701,1.899c-1.199,0-1.799-0.633-1.799-1.899
		c0-1.334,0.6-2,1.799-2h0.301L-379.298-400.726 M-390.399-385.626l-6.399-3.7c-0.4-0.267-0.601-0.733-0.601-1.399
		c0-1.334,0.667-2,2-2c0.601,0.066,1.033,0.3,1.3,0.699L-390.399-385.626 M-413.599-410.826c0,1.334-0.667,2-2,2
		c-0.667-0.066-1.134-0.3-1.4-0.7l-3.6-6.3l6.3,3.601C-413.899-411.959-413.665-411.492-413.599-410.826 M-405.599-411.526
		c3.066,0,5.633,1.067,7.7,3.2c2.067,2.067,3.101,4.601,3.101,7.601c0,2.933-1.033,5.467-3.101,7.6c-2.066,2.066-4.634,3.1-7.7,3.1
		c-2.934,0-5.467-1.033-7.6-3.1c-2.067-2.066-3.1-4.6-3.1-7.6c0-3.067,1.033-5.634,3.1-7.7
		C-411.065-410.492-408.532-411.526-405.599-411.526 M-417.299-400.726c0,1.267-0.633,1.899-1.9,1.899l-12.6-1.899l12.7-2
		C-417.899-402.726-417.299-402.06-417.299-400.726 M-403.599-386.926l-2,12.399l-1.9-12.6c0-1.267,0.633-1.9,1.9-1.9
		c1.333,0,2,0.634,2,1.9V-386.926 M-415.599-392.726c1.333,0,2,0.666,2,2c-0.067,0.666-0.3,1.133-0.7,1.399l-6.3,3.7l3.6-6.4
		C-416.732-392.426-416.266-392.659-415.599-392.726 M-424.499-444.226c0.067,0,0.434-0.067,1.1-0.2c0.733-0.2,1.7-0.367,2.9-0.5
		c1.267-0.2,2.534-0.3,3.8-0.3c0.6-1.533,0.9-2.467,0.9-2.801v-5.6c-0.667-0.267-1.2-0.399-1.6-0.4l-8.1,1.2
		c0,0.733,0.034,1.467,0.1,2.2c3-0.8,4.967-1.2,5.9-1.2c0.667,0,1.133,0.267,1.4,0.8l-0.2,0.301c-2.4,0.6-4.767,0.899-7.1,0.899v2.5
		l6.2-1.399c0.267,0.066,0.633,0.166,1.1,0.3v0.6c-0.534,0.267-1.1,0.5-1.7,0.7c-0.6,0.134-1.133,0.233-1.6,0.3
		c-0.4,0.067-1.066,0.134-2,0.2c-0.933,0.066-1.733,0.134-2.4,0.2v2.2H-424.499 M-419.899-436.126c0.467,0,0.967-0.467,1.5-1.4
		c0.6-1,0.9-1.699,0.9-2.1c0-0.2-0.033-0.4-0.1-0.6c-0.067-0.2-0.1-0.334-0.1-0.4c-2.067,0.733-3.7,1.1-4.9,1.1
		c-0.133,0-0.434-0.033-0.9-0.1c-0.466-0.066-0.767-0.1-0.9-0.1c-0.533,0-1.066,0.267-1.6,0.8c0.534,0.2,1.267,0.566,2.2,1.1
		c1,0.467,1.867,0.867,2.6,1.2S-420.032-436.126-419.899-436.126 M-405.599-392.526c2.4,0,4.367-0.8,5.9-2.399
		c1.6-1.601,2.4-3.533,2.4-5.8s-0.801-4.2-2.4-5.801c-1.533-1.6-3.5-2.399-5.9-2.399c-2.333,0-4.3,0.8-5.9,2.399
		c-1.533,1.601-2.3,3.534-2.3,5.801c0,2.333,0.8,4.3,2.4,5.899C-409.799-393.293-407.866-392.526-405.599-392.526"/>
</g>
</svg>
