<?xml version="1.0" encoding="utf-8"?>
<!-- Generator: Adobe Illustrator 16.0.0, SVG Export Plug-In . SVG Version: 6.00 Build 0)  -->
<!DOCTYPE svg PUBLIC "-//W3C//DTD SVG 1.1//EN" "http://www.w3.org/Graphics/SVG/1.1/DTD/svg11.dtd">
<svg version="1.1"
	 id="svg2" xmlns:dc="http://purl.org/dc/elements/1.1/" xmlns:cc="http://creativecommons.org/ns#" xmlns:rdf="http://www.w3.org/1999/02/22-rdf-syntax-ns#" xmlns:svg="http://www.w3.org/2000/svg" xmlns:sodipodi="http://sodipodi.sourceforge.net/DTD/sodipodi-0.dtd" xmlns:inkscape="http://www.inkscape.org/namespaces/inkscape" sodipodi:docname="MJChar2.svg" inkscape:version="0.47pre4 r22446"
	 xmlns="http://www.w3.org/2000/svg" xmlns:xlink="http://www.w3.org/1999/xlink" x="0px" y="0px" width="64px" height="88px"
	 viewBox="0 0 64 88" enable-background="new 0 0 64 88" xml:space="preserve">
<sodipodi:namedview  showgrid="false" inkscape:cy="68.639901" inkscape:cx="-14.121079" inkscape:zoom="1.4" borderopacity="1.0" bordercolor="#666666" pagecolor="#ffffff" id="base" inkscape:window-maximized="0" inkscape:window-y="107" inkscape:current-layer="layer1" inkscape:document-units="px" inkscape:window-x="756" inkscape:pageshadow="2" inkscape:pageopacity="0.0" inkscape:window-width="855" inkscape:window-height="838">
	</sodipodi:namedview>
<g id="use365" transform="translate(548.14286,575.64788)">
	<path id="path4417" fill="#BA0000" d="M-514.133-534.508c0,0-4.39,3.33-4.78,3.629c-0.32-0.33-3.2-3.27-3.2-3.27l2.22,8.92
		l0.6-0.029c0.75-4.761,4.35-6.631,5.33-7.051c0.141,0.2,0.26,0.42,0.26,0.72c0,0.09-0.01,0.18-0.02,0.28
		c-0.21,1.67-2.391,4.641-6.68,7.21l-0.31,0.181l0.81,1.01l0.2-0.061c0.06-0.02,6.589-2.06,10.36-1.88l1.14,0.05l-0.959-0.63
		c-0.08-0.05-1.951-1.25-3.931-1.03c0.28-0.629,2.261-2.56,4.15-4.16l0.31-0.26l-5.32-3.77L-514.133-534.508z"/>
	<path id="path4419" fill="#BA0000" d="M-498.364-510.007c-0.17-0.171-4.209-4.281-5.629-5.011c-0.53-0.271-1.711-0.18-5.75,0.16
		c0,0-0.17,0.01-0.43,0.04c1.189-2.79,2.719-5.86,3.569-6.25l0.55-0.25l-2.13-2.09l-0.21,0.029c-5.109,0.871-13.08,2.09-14.11,1.9
		l-0.35-0.07l-0.12,0.33c-0.2,0.561,0.32,4.93,0.86,7.37c-4.58,0.4-10.03,0.86-10.03,0.86l0.3,0.56l0.68,1.271l0.32-0.09
		c1.72-0.51,2.52-0.57,4.6-0.541c0.19,0.49,2.6,6.771,2.6,6.771l0.79-0.2c0,0-0.69-5.689-0.8-6.52c0.78,0.02,7.99,0.22,9.67,0.26
		c-1.09,0.92-3.561,3.02-3.561,3.02l0.4,0.711c0,0,5.15-1.76,5.41-1.851c0.25,0.101,4.3,1.65,4.3,1.65s-2.13-2.57-2.81-3.38
		c3.779,0.199,4.75,0.42,5.01,0.74c0.33,0.39,0.5,0.959,0.5,1.6c0,1.16-0.58,2.57-1.801,3.73c-1.819-0.461-5.17-2.341-5.209-2.361
		l-0.521,0.621l5.08,6.35l0.24-0.05c3.819-0.78,8.44-8.48,8.63-8.81l0.17-0.271L-498.364-510.007z M-511.123-517.997
		c-1.22,0.16-2.77,0.369-3.209,0.43c0-0.33,0-1.17,0-2c1.619-0.13,3.109-0.25,3.489-0.29
		C-510.893-519.587-510.992-518.878-511.123-517.997z M-516.053-519.428c0.02,0.841,0.04,1.75,0.051,2.06
		c-1.41,0.16-2.601,0.261-3.551,0.301c0.1-0.62,0.19-1.311,0.3-2.1C-519.013-519.188-517.633-519.298-516.053-519.428z
		 M-520.113-513.997c0.08-0.351,0.17-0.76,0.26-1.24c1.3-0.24,2.61-0.46,3.89-0.631c0.01,0.48,0.03,1.101,0.041,1.521
		C-516.172-514.337-517.883-514.188-520.113-513.997z M-514.343-514.478c0-0.48,0-1.18,0-1.6c0.979-0.101,1.36-0.08,1.96-0.021
		l0.961,0.06c-0.07,0.461-0.141,0.92-0.201,1.351C-512.713-514.608-513.953-514.507-514.343-514.478z"/>
</g>
<path id="path793" fill="#20208C" d="M40.7,26.3c-0.3,0.2-0.4,0.5-0.4,0.9c0,0.3,0,0.5,0.101,0.7c-2.701,0.3-19.3,1.9-23.4,1.4
	l-0.5-0.1l1.7,6.2l0.3-0.1c3.2-1.2,23.6-2.4,28.4-1.4c0.799,0.2,1.299,0,1.5-0.4c0.6-1.3-2.9-4.6-3.301-5
	C44.1,27.7,41.699,25.6,40.7,26.3L40.7,26.3z"/>
<polygon id="polygon795" fill="#20208C" points="34.6,19 34.3,19 23,20.4 24.6,24.7 36.6,23.3 "/>
<path id="path797" fill="#20208C" d="M31.9,8.6c-3,1.1-7,2.6-14,2.6h-0.6l3.2,4.9l18.9-2.6L40,9.9l-0.1-0.1
	C37.2,6.6,35.3,7.3,31.9,8.6L31.9,8.6z"/>
</svg>
