<?xml version="1.0" encoding="utf-8"?>
<!-- Generator: Adobe Illustrator 16.0.0, SVG Export Plug-In . SVG Version: 6.00 Build 0)  -->
<!DOCTYPE svg PUBLIC "-//W3C//DTD SVG 1.1//EN" "http://www.w3.org/Graphics/SVG/1.1/DTD/svg11.dtd">
<svg version="1.1"
	 id="svg2" xmlns:dc="http://purl.org/dc/elements/1.1/" xmlns:cc="http://creativecommons.org/ns#" xmlns:rdf="http://www.w3.org/1999/02/22-rdf-syntax-ns#" xmlns:svg="http://www.w3.org/2000/svg" xmlns:sodipodi="http://sodipodi.sourceforge.net/DTD/sodipodi-0.dtd" xmlns:inkscape="http://www.inkscape.org/namespaces/inkscape" sodipodi:docname="MJ4tiao.svg" inkscape:version="0.47 r22583"
	 xmlns="http://www.w3.org/2000/svg" xmlns:xlink="http://www.w3.org/1999/xlink" x="0px" y="0px" width="74.7px" height="95.1px"
	 viewBox="0 0 74.7 95.1" enable-background="new 0 0 74.7 95.1" xml:space="preserve">
<defs>
	
	
		<inkscape:perspective  inkscape:vp_z="74.699997 : 47.549999 : 1" sodipodi:type="inkscape:persp3d" inkscape:vp_y="0 : 1000 : 0" inkscape:vp_x="0 : 47.549999 : 1" id="perspective3339" inkscape:persp3d-origin="37.349998 : 31.699999 : 1">
		</inkscape:perspective>
</defs>
<sodipodi:namedview  showgrid="false" inkscape:cy="28.287796" inkscape:cx="-37.486878" inkscape:zoom="3.959798" borderopacity="1.0" bordercolor="#666666" pagecolor="#ffffff" id="base" inkscape:window-maximized="1" inkscape:window-y="25" inkscape:current-layer="layer1" inkscape:document-units="px" inkscape:window-x="0" inkscape:pageshadow="2" inkscape:pageopacity="0.0" inkscape:window-width="1440" inkscape:window-height="851">
	</sodipodi:namedview>
<g id="g3080" transform="translate(386.80698,546.35474)">
	
		<path id="path3082" sodipodi:nodetypes="cscscscsccscccccccccccccsccscscscsccscccccccccccccsccscscscsccscccccccccccccsccscscscsccscccccccccccccsc" fill="#006C00" d="
		M-324.907-461.705c-1.667-0.133-3.333-0.199-5-0.199s-3.3,0.066-4.899,0.199c0.133-5.6,0.199-11.166,0.199-16.699
		c0-5.534-0.066-11.067-0.199-16.601c1.666,0.134,3.299,0.2,4.899,0.2c1.667,0,3.333-0.066,5-0.2
		c-0.134,5.533-0.2,11.066-0.2,16.601C-325.107-472.805-325.041-467.238-324.907-461.705 M-326.907-492.904c-1,0-2,0-3,0
		c-0.933,0-1.899,0-2.899,0c0.066,4,0.1,7.899,0.1,11.699h5.699C-327.008-485.005-326.974-488.904-326.907-492.904
		 M-327.008-477.404v-2h-5.699v2H-327.008 M-326.907-463.805c-0.066-4.267-0.101-8.167-0.101-11.7h-5.699
		c0,3.667-0.033,7.566-0.1,11.7c1-0.066,1.967-0.1,2.899-0.1C-328.907-463.904-327.907-463.871-326.907-463.805 M-324.907-502.604
		c-1.667-0.134-3.333-0.2-5-0.2s-3.3,0.066-4.899,0.2c0.133-5.601,0.199-11.167,0.199-16.7s-0.066-11.066-0.199-16.6
		c1.666,0.133,3.299,0.199,4.899,0.199c1.667,0,3.333-0.066,5-0.199c-0.134,5.533-0.2,11.066-0.2,16.6
		C-325.107-513.705-325.041-508.138-324.907-502.604 M-326.907-533.805c-1,0-2,0-3,0c-0.933,0-1.899,0-2.899,0
		c0.066,4,0.1,7.9,0.1,11.7h5.699C-327.008-525.904-326.974-529.805-326.907-533.805 M-327.008-518.305v-2h-5.699v2H-327.008
		 M-326.907-504.705c-0.066-4.267-0.101-8.166-0.101-11.699h-5.699c0,3.666-0.033,7.566-0.1,11.699c1-0.066,1.967-0.1,2.899-0.1
		C-328.907-504.805-327.907-504.771-326.907-504.705 M-364.107-461.705c-1.667-0.133-3.333-0.199-5-0.199
		c-1.667,0-3.3,0.066-4.9,0.199c0.133-5.6,0.2-11.166,0.2-16.699c0-5.534-0.067-11.067-0.2-16.601c1.667,0.134,3.3,0.2,4.9,0.2
		c1.667,0,3.333-0.066,5-0.2c-0.133,5.533-0.2,11.066-0.2,16.601C-364.307-472.805-364.241-467.238-364.107-461.705
		 M-366.107-492.904c-1,0-2,0-3,0c-0.934,0-1.9,0-2.9,0c0.067,4,0.1,7.899,0.1,11.699h5.7
		C-366.207-485.005-366.174-488.904-366.107-492.904 M-366.207-477.404v-2h-5.7v2H-366.207 M-366.107-463.805
		c-0.067-4.267-0.1-8.167-0.1-11.7h-5.7c0,3.667-0.033,7.566-0.1,11.7c1-0.066,1.967-0.1,2.9-0.1
		C-368.107-463.904-367.107-463.871-366.107-463.805 M-364.107-502.604c-1.667-0.134-3.333-0.2-5-0.2c-1.667,0-3.3,0.066-4.9,0.2
		c0.133-5.601,0.2-11.167,0.2-16.7s-0.067-11.066-0.2-16.6c1.667,0.133,3.3,0.199,4.9,0.199c1.667,0,3.333-0.066,5-0.199
		c-0.133,5.533-0.2,11.066-0.2,16.6C-364.307-513.705-364.241-508.138-364.107-502.604 M-366.107-533.805c-1,0-2,0-3,0
		c-0.934,0-1.9,0-2.9,0c0.067,4,0.1,7.9,0.1,11.7h5.7C-366.207-525.904-366.174-529.805-366.107-533.805 M-366.207-518.305v-2h-5.7
		v2H-366.207 M-366.107-504.705c-0.067-4.267-0.1-8.166-0.1-11.699h-5.7c0,3.666-0.033,7.566-0.1,11.699c1-0.066,1.967-0.1,2.9-0.1
		C-368.107-504.805-367.107-504.771-366.107-504.705"/>
</g>
</svg>
