<?xml version="1.0" encoding="utf-8"?>
<!-- Generator: Adobe Illustrator 16.0.0, SVG Export Plug-In . SVG Version: 6.00 Build 0)  -->
<!DOCTYPE svg PUBLIC "-//W3C//DTD SVG 1.1//EN" "http://www.w3.org/Graphics/SVG/1.1/DTD/svg11.dtd">
<svg version="1.1"
	 id="svg2" xmlns:dc="http://purl.org/dc/elements/1.1/" xmlns:cc="http://creativecommons.org/ns#" xmlns:rdf="http://www.w3.org/1999/02/22-rdf-syntax-ns#" xmlns:svg="http://www.w3.org/2000/svg" xmlns:sodipodi="http://sodipodi.sourceforge.net/DTD/sodipodi-0.dtd" xmlns:inkscape="http://www.inkscape.org/namespaces/inkscape" sodipodi:docname="MJ6tiao.svg" inkscape:version="0.47 r22583"
	 xmlns="http://www.w3.org/2000/svg" xmlns:xlink="http://www.w3.org/1999/xlink" x="0px" y="0px" width="74.7px" height="95.1px"
	 viewBox="0 0 74.7 95.1" enable-background="new 0 0 74.7 95.1" xml:space="preserve">
<sodipodi:namedview  showgrid="false" inkscape:cy="28.287796" inkscape:cx="-51.954732" inkscape:zoom="3.959798" borderopacity="1.0" bordercolor="#666666" pagecolor="#ffffff" id="base" inkscape:window-maximized="1" inkscape:window-y="25" inkscape:current-layer="g3205" inkscape:document-units="px" inkscape:window-x="0" inkscape:pageshadow="2" inkscape:pageopacity="0.0" inkscape:window-width="1440" inkscape:window-height="851">
	</sodipodi:namedview>
<path id="path3351" sodipodi:nodetypes="cscscscsccscccccccccccccsccscscscsccscccccccccccccsccscscscsccscccccccccccccsccscscscsccscccccccccccccsccscscscsccscccccccccccccsccscscscsccscccccccccccccsc" fill="#006C00" d="
	M61.85,84.65c-1.667-0.133-3.334-0.199-5-0.199c-1.667,0-3.301,0.066-4.9,0.199c0.134-5.6,0.2-11.166,0.2-16.699
	c0-5.534-0.066-11.067-0.2-16.601c1.667,0.134,3.301,0.2,4.9,0.2c1.666,0,3.333-0.066,5-0.2c-0.133,5.533-0.2,11.066-0.2,16.601
	C61.65,73.55,61.717,79.116,61.85,84.65 M59.85,53.45c-1,0-2,0-3,0c-0.934,0-1.9,0-2.9,0c0.066,4,0.1,7.899,0.1,11.699h5.701
	C59.75,61.35,59.784,57.45,59.85,53.45 M59.75,68.95v-2h-5.701v2H59.75 M59.85,82.55c-0.066-4.267-0.1-8.167-0.1-11.7h-5.701
	c0,3.667-0.033,7.566-0.1,11.7c1-0.066,1.967-0.1,2.9-0.1C57.85,82.45,58.85,82.484,59.85,82.55 M61.85,43.75
	c-1.667-0.134-3.334-0.2-5-0.2c-1.667,0-3.301,0.066-4.9,0.2c0.134-5.601,0.2-11.167,0.2-16.7s-0.066-11.066-0.2-16.6
	c1.667,0.133,3.301,0.199,4.9,0.199c1.666,0,3.333-0.066,5-0.199c-0.133,5.533-0.2,11.066-0.2,16.6
	C61.65,32.65,61.717,38.217,61.85,43.75 M59.85,12.55c-1,0-2,0-3,0c-0.934,0-1.9,0-2.9,0c0.066,4,0.1,7.9,0.1,11.7h5.701
	C59.75,20.45,59.784,16.55,59.85,12.55 M59.75,28.05v-2h-5.701v2H59.75 M59.85,41.65c-0.066-4.267-0.1-8.166-0.1-11.699h-5.701
	c0,3.666-0.033,7.566-0.1,11.699c1-0.066,1.967-0.1,2.9-0.1C57.85,41.55,58.85,41.583,59.85,41.65 M22.75,84.65
	c-1.667-0.133-3.333-0.199-5-0.199s-3.3,0.066-4.9,0.199c0.133-5.6,0.2-11.166,0.2-16.699c0-5.534-0.066-11.067-0.2-16.601
	c1.667,0.134,3.3,0.2,4.9,0.2c1.667,0,3.333-0.066,5-0.2c-0.133,5.533-0.2,11.066-0.2,16.601C22.55,73.55,22.617,79.116,22.75,84.65
	 M20.75,53.45c-1,0-2,0-3,0c-0.933,0-1.9,0-2.9,0c0.066,4,0.1,7.899,0.1,11.699h5.7C20.65,61.35,20.683,57.45,20.75,53.45
	 M20.65,68.95v-2h-5.7v2H20.65 M20.75,82.55c-0.067-4.267-0.1-8.167-0.1-11.7h-5.7c0,3.667-0.034,7.566-0.1,11.7
	c1-0.066,1.967-0.1,2.9-0.1C18.75,82.45,19.75,82.484,20.75,82.55 M22.75,43.75c-1.667-0.134-3.333-0.2-5-0.2s-3.3,0.066-4.9,0.2
	c0.133-5.601,0.2-11.167,0.2-16.7s-0.066-11.066-0.2-16.6c1.667,0.133,3.3,0.199,4.9,0.199c1.667,0,3.333-0.066,5-0.199
	c-0.133,5.533-0.2,11.066-0.2,16.6C22.55,32.65,22.617,38.217,22.75,43.75 M20.75,12.55c-1,0-2,0-3,0c-0.933,0-1.9,0-2.9,0
	c0.066,4,0.1,7.9,0.1,11.7h5.7C20.65,20.45,20.683,16.55,20.75,12.55 M20.65,28.05v-2h-5.7v2H20.65 M20.75,41.65
	c-0.067-4.267-0.1-8.166-0.1-11.699h-5.7c0,3.666-0.034,7.566-0.1,11.699c1-0.066,1.967-0.1,2.9-0.1
	C18.75,41.55,19.75,41.583,20.75,41.65 M42.35,84.65c-1.667-0.133-3.334-0.199-5-0.199c-1.667,0-3.3,0.066-4.9,0.199
	c0.133-5.6,0.2-11.166,0.2-16.699c0-5.534-0.066-11.067-0.2-16.601c1.667,0.134,3.3,0.2,4.9,0.2c1.666,0,3.333-0.066,5-0.2
	c-0.133,5.533-0.2,11.066-0.2,16.601C42.15,73.55,42.217,79.116,42.35,84.65 M40.35,53.45c-1,0-2,0-3,0c-0.934,0-1.9,0-2.9,0
	c0.066,4,0.1,7.899,0.1,11.699h5.701C40.25,61.35,40.284,57.45,40.35,53.45 M40.25,68.95v-2H34.55v2H40.25 M40.35,82.55
	c-0.066-4.267-0.1-8.167-0.1-11.7H34.55c0,3.667-0.033,7.566-0.1,11.7c1-0.066,1.966-0.1,2.9-0.1
	C38.35,82.45,39.35,82.484,40.35,82.55 M42.35,43.75c-1.667-0.134-3.334-0.2-5-0.2c-1.667,0-3.3,0.066-4.9,0.2
	c0.133-5.601,0.2-11.167,0.2-16.7s-0.066-11.066-0.2-16.6c1.667,0.133,3.3,0.199,4.9,0.199c1.666,0,3.333-0.066,5-0.199
	c-0.133,5.533-0.2,11.066-0.2,16.6C42.15,32.65,42.217,38.217,42.35,43.75 M40.35,12.55c-1,0-2,0-3,0c-0.934,0-1.9,0-2.9,0
	c0.066,4,0.1,7.9,0.1,11.7h5.701C40.25,20.45,40.284,16.55,40.35,12.55 M40.25,28.05v-2H34.55v2H40.25 M40.35,41.65
	c-0.066-4.267-0.1-8.166-0.1-11.699H34.55c0,3.666-0.033,7.566-0.1,11.699c1-0.066,1.966-0.1,2.9-0.1
	C38.35,41.55,39.35,41.583,40.35,41.65"/>
</svg>
