<?xml version="1.0" encoding="utf-8"?>
<!-- Generator: Adobe Illustrator 16.0.0, SVG Export Plug-In . SVG Version: 6.00 Build 0)  -->
<!DOCTYPE svg PUBLIC "-//W3C//DTD SVG 1.1//EN" "http://www.w3.org/Graphics/SVG/1.1/DTD/svg11.dtd">
<svg version="1.1"
	 id="svg2" xmlns:dc="http://purl.org/dc/elements/1.1/" xmlns:cc="http://creativecommons.org/ns#" xmlns:rdf="http://www.w3.org/1999/02/22-rdf-syntax-ns#" xmlns:svg="http://www.w3.org/2000/svg" xmlns:sodipodi="http://sodipodi.sourceforge.net/DTD/sodipodi-0.dtd" xmlns:inkscape="http://www.inkscape.org/namespaces/inkscape" sodipodi:docname="MJCirc9.svg" inkscape:version="0.47pre4 r22446"
	 xmlns="http://www.w3.org/2000/svg" xmlns:xlink="http://www.w3.org/1999/xlink" x="0px" y="0px" width="64px" height="88px"
	 viewBox="0 0 64 88" enable-background="new 0 0 64 88" xml:space="preserve">
<sodipodi:namedview  showgrid="false" inkscape:cy="6.6399113" inkscape:cx="-14.406789" inkscape:zoom="1.4" borderopacity="1.0" bordercolor="#666666" pagecolor="#ffffff" id="base" inkscape:window-maximized="0" inkscape:window-y="107" inkscape:current-layer="layer1" inkscape:document-units="px" inkscape:window-x="754" inkscape:pageshadow="2" inkscape:pageopacity="0.0" inkscape:window-width="855" inkscape:window-height="838">
	</sodipodi:namedview>
<path id="path1027" fill="#101040" d="M53.3,54.7c-2-0.9-11.8,3.3-11.8,3.3L42,37.3c0,0,5.3-4.3,9.6-1.7l-1.199-5
	C49,30.4,42,36.1,42,36.1s-0.6-18.8,4.8-19.9c0,0-8.899-2.6-9.7-2.2c-0.4,0.2-0.4,13.8-0.199,27.1c-3.201,3.1-5.9,6.2-7.101,7.3
	l0.4-28.5c0,0-4.7-2.6-5.8-1.4l0.2,14.8c-0.3-0.5-0.7-0.9-1-1.3c-1-1.3-6.1-4.2-6.1-4.2s1.7,5.6,2.5,6.6c0.7,0.9,3,2.9,4.6,2.2
	l0.2,16.5c-3.4,3-7.9,6.801-8.5,5.4c-1.5-3.2-4.7-3-5.2-1.5c-0.5,1.6,4.2,10.2,5.8,10.1c0.8-0.1,4.4-4.9,8-10L25,62.4
	c1.6,2.1,3.8,0.5,4.6-0.701l0.301-11c1.1-1.6,4-4.5,7.1-7.899c0.199,12.101,0.3,22.8,0.3,22.8c4.899-5.199,16.7-4,16.7-4L53.3,54.7
	L53.3,54.7z"/>
</svg>
