<?xml version="1.0" encoding="utf-8"?>
<!-- Generator: Adobe Illustrator 16.0.0, SVG Export Plug-In . SVG Version: 6.00 Build 0)  -->
<!DOCTYPE svg PUBLIC "-//W3C//DTD SVG 1.1//EN" "http://www.w3.org/Graphics/SVG/1.1/DTD/svg11.dtd">
<svg version="1.1"
	 id="svg2" xmlns:dc="http://purl.org/dc/elements/1.1/" xmlns:cc="http://creativecommons.org/ns#" xmlns:rdf="http://www.w3.org/1999/02/22-rdf-syntax-ns#" xmlns:svg="http://www.w3.org/2000/svg" xmlns:sodipodi="http://sodipodi.sourceforge.net/DTD/sodipodi-0.dtd" xmlns:inkscape="http://www.inkscape.org/namespaces/inkscape" sodipodi:docname="MJWWest.svg" inkscape:version="0.47pre4 r22446"
	 xmlns="http://www.w3.org/2000/svg" xmlns:xlink="http://www.w3.org/1999/xlink" x="0px" y="0px" width="64px" height="88px"
	 viewBox="0 0 64 88" enable-background="new 0 0 64 88" xml:space="preserve">
<sodipodi:namedview  showgrid="false" inkscape:cy="25.354191" inkscape:cx="-60.406789" inkscape:zoom="1.4" borderopacity="1.0" bordercolor="#666666" pagecolor="#ffffff" id="base" inkscape:window-maximized="0" inkscape:window-y="107" inkscape:current-layer="layer1" inkscape:document-units="px" inkscape:window-x="756" inkscape:pageshadow="2" inkscape:pageopacity="0.0" inkscape:window-width="855" inkscape:window-height="838">
	</sodipodi:namedview>
<path id="path855" fill="#101040" d="M28.3,14.2c0.4,0.5,0.9,2.3,0.9,8.6c0,0.9,0,1.8,0,2.8c-3.4,0.5-6.3,1-6.8,1.2L21.8,27l2.8,2.7
	l0.2-0.1c1.1-0.3,2.6-0.5,4.2-0.7c0,0.7-0.4,7.3-0.4,7.9c-4.9,0.4-9.2,1.1-12.7,1.9c-3,0.8-4.8,2.6-5.2,5.4
	c-0.1,0.4-0.1,0.9-0.1,1.4c0,7.1,6.9,16.9,7,16.9l0.8,0.5L18.1,62c0-0.1-2.8-9.4-2.8-15.6c0-1.801,0.2-3.3,0.8-4.3
	c0.4-0.6,0.8-0.9,1.4-1c1.3-0.2,2.7-0.4,4-0.6c0,0,3.1,4,3.7,4.7c-0.5,0.101-1.4,0.3-1.4,0.3v0.301L24,48l0.4-0.1
	c0.6-0.2,1.8-0.5,3.2-0.7c0,0.601,0.1,2.399,0.2,2.899c-1.7,0.5-3.2,1.101-3.8,1.4l-0.4,0.2l1.5,1.601l0.2-0.101
	C26,52.9,27,52.6,28,52.301c0,0.699,0.3,5.6,0.3,5.6H29c0,0,1.1-5.5,1.2-6c1.8-0.2,3.5-0.1,4.8,0.199l0.4,0.101v-3L35.2,49.1
	C34.4,48.7,32.9,48.7,30.7,49.2c0.101-0.7,0.399-2.101,0.5-2.5C32.801,46.6,34.1,46.5,35,46.6l0.5,0.101l-0.699-2.6
	c0,0-0.9,0-1.4,0.1c0.8-0.9,3.5-4.4,3.699-4.6c0.301,0,3.9,0.1,3.9,0.1c1.6,0.1,3,0.7,4.1,2c1.301,1.5,2,3.899,2,6.3
	c0,0.5,0,1.1-0.1,1.6l-0.1,0.701c-0.7,5.1-1.301,8.799-3.1,9.6C42.6,60.4,40.7,59.6,37.9,57.5L37.4,58l5.5,9.6l0.3-0.1
	c6.7-2.4,7.7-3.8,10.399-15.4C54.801,47,54.4,43,52.301,40.3c-2.5-3.3-6.301-3.7-6.5-3.7c-0.101,0-6.701-0.3-14.601,0.2
	c0.2-0.8,2-7.5,2.101-7.9c2.5,0,4.699,0.1,5.699,0.5l0.4,0.1l0.4-4.7h-0.4c-1.1,0-2.801,0.1-5.1,0.3c1.299-4.4,1.899-5.8,2.1-6.2
	l0.199-0.3l-8.1-4.7L28.3,14.2L28.3,14.2z M32.7,39.5C32.6,40.2,32,43.8,32,44.2h-0.1c0-0.1,0.1-0.4,0.1-0.4l-4.4,0.4
	c0,0,0,0.5,0,0.6c-0.4,0.101-1,0.2-1.4,0.2c0-0.7,0-5,0-5.1C28.4,39.8,30.5,39.6,32.7,39.5L32.7,39.5z"/>
</svg>
