<?xml version="1.0" encoding="utf-8"?>
<!-- Generator: Adobe Illustrator 16.0.0, SVG Export Plug-In . SVG Version: 6.00 Build 0)  -->
<!DOCTYPE svg PUBLIC "-//W3C//DTD SVG 1.1//EN" "http://www.w3.org/Graphics/SVG/1.1/DTD/svg11.dtd">
<svg version="1.1"
	 id="svg2" xmlns:dc="http://purl.org/dc/elements/1.1/" xmlns:cc="http://creativecommons.org/ns#" xmlns:rdf="http://www.w3.org/1999/02/22-rdf-syntax-ns#" xmlns:svg="http://www.w3.org/2000/svg" xmlns:sodipodi="http://sodipodi.sourceforge.net/DTD/sodipodi-0.dtd" xmlns:inkscape="http://www.inkscape.org/namespaces/inkscape" sodipodi:docname="MJWSouth.svg" inkscape:version="0.47pre4 r22446"
	 xmlns="http://www.w3.org/2000/svg" xmlns:xlink="http://www.w3.org/1999/xlink" x="0px" y="0px" width="64px" height="88px"
	 viewBox="0 0 64 88" enable-background="new 0 0 64 88" xml:space="preserve">
<sodipodi:namedview  showgrid="false" inkscape:cy="30.782761" inkscape:cx="-67.692499" inkscape:zoom="1.4" borderopacity="1.0" bordercolor="#666666" pagecolor="#ffffff" id="base" inkscape:window-maximized="0" inkscape:window-y="107" inkscape:current-layer="layer1" inkscape:document-units="px" inkscape:window-x="756" inkscape:pageshadow="2" inkscape:pageopacity="0.0" inkscape:window-width="855" inkscape:window-height="838">
	</sodipodi:namedview>
<path id="path857" fill="#101040" d="M32.5,41.3l0.1-6.4l4.4-0.3l-0.3-2.4L32.6,33.4v-5.7c2.4,0.3,5,0.8,7.101,0.9
	c4.3,0.3-1.2,14.1-1.2,14.1s16.3-14.4,2.6-18.1C39.7,24.6,36.2,24.8,32.7,25v-3.9l7.5-1.9l-7.5-0.1v-4l-4.6-3.4l0.5,8.7l-4,2.7
	l4.1-1l0.2,3.2c-1.8,0.2-3.4,0.3-4.3,0.5c-11.5,2.2,1,17.2,1,17.2s-4-14,0.5-15.3c0.9-0.3,1.8-0.3,2.9-0.3l0.4,7l-3,0.9l3-0.2
	l0.199,4.1C20.4,51.3,9.9,55.8,9.9,55.8s10.2-1.1,20-11.9l1,18.7c-3.7-1.5-7-3.6-7-3.6s2.4,7.1,7.5,10.1l4.3-5.1
	c-1-0.2-2.101-0.5-3.2-0.9L32.7,44.2c2.7,3.2,9,10.5,11.7,11l9-3C49.9,51.6,35.7,43.3,32.5,41.3L32.5,41.3z"/>
</svg>
