<?xml version="1.0" encoding="utf-8"?>
<!-- Generator: Adobe Illustrator 16.0.0, SVG Export Plug-In . SVG Version: 6.00 Build 0)  -->
<!DOCTYPE svg PUBLIC "-//W3C//DTD SVG 1.1//EN" "http://www.w3.org/Graphics/SVG/1.1/DTD/svg11.dtd">
<svg version="1.1"
	 id="svg2" xmlns:dc="http://purl.org/dc/elements/1.1/" xmlns:cc="http://creativecommons.org/ns#" xmlns:rdf="http://www.w3.org/1999/02/22-rdf-syntax-ns#" xmlns:svg="http://www.w3.org/2000/svg" xmlns:sodipodi="http://sodipodi.sourceforge.net/DTD/sodipodi-0.dtd" xmlns:inkscape="http://www.inkscape.org/namespaces/inkscape" sodipodi:docname="MJWNorth.svg" inkscape:version="0.47pre4 r22446"
	 xmlns="http://www.w3.org/2000/svg" xmlns:xlink="http://www.w3.org/1999/xlink" x="0px" y="0px" width="64px" height="88px"
	 viewBox="0 0 64 88" enable-background="new 0 0 64 88" xml:space="preserve">
<defs>
	
	
		<inkscape:perspective  inkscape:vp_z="1 : 0.5 : 1" sodipodi:type="inkscape:persp3d" inkscape:vp_y="0 : 1000 : 0" inkscape:vp_x="0 : 0.5 : 1" id="perspective4088" inkscape:persp3d-origin="0.5 : 0.33333333 : 1">
		</inkscape:perspective>
</defs>
<sodipodi:namedview  showgrid="false" inkscape:cy="3.4970513" inkscape:cx="-7.4067886" inkscape:zoom="1.4" borderopacity="1.0" bordercolor="#666666" pagecolor="#ffffff" id="base" inkscape:window-maximized="0" inkscape:window-y="107" inkscape:current-layer="layer1" inkscape:document-units="px" inkscape:window-x="754" inkscape:pageshadow="2" inkscape:pageopacity="0.0" inkscape:window-width="855" inkscape:window-height="838">
	</sodipodi:namedview>
<path id="path851" fill="#101040" d="M45.4,14.3c-8.5,5.7-21.5,6.9-28.8,5.9l-0.9,2C27.4,26,42.1,23.2,46.9,19L45.4,14.3L45.4,14.3z
	"/>
<path id="path853" fill="#101040" d="M49.5,39.2c-3.6-0.9-7.3-1.4-10.8-1.7c0.8-2.9,1.2-6,1-9.2l-7.8,2c0.6,1.7,0.6,4.3,0.199,7
	c-1.6,0-3.1,0.1-4.5,0.3c0.2-2.7,0.4-3.3-0.5-6l-4.7,1.3c1,1.8,1.5,2.3,1.8,5.1c-3.4,1-5.7,1.8-6.9,3.2c-5.1,6.1,0,23.2,0,23.2
	s-0.2-15.4,2-17C21.5,45.8,24,45.6,24,45.6c0.1,1.5-1.6,6.7-1.6,6.7c2.2-2.7,3.2-3.6,4.3-7.2c1.6-0.5,2.5-0.8,4.1-1
	C29.2,50.2,26.3,55,26.3,55l7.4,2c-4.101-0.1-13.3,5.1-13.3,5.1s16.2-4,20.8-1.1l1.2-2.9C39,55.4,31.9,53.2,31.9,53.2
	s2.199-4.101,4.6-9.4c2.3,0.1,5.6,0.3,7.7,0.9c9.2,4.1-1.7,22.399-1.7,22.399S62.7,45.9,49.5,39.2L49.5,39.2z"/>
</svg>
