<?xml version="1.0" encoding="utf-8"?>
<!-- Generator: Adobe Illustrator 16.0.0, SVG Export Plug-In . SVG Version: 6.00 Build 0)  -->
<!DOCTYPE svg PUBLIC "-//W3C//DTD SVG 1.1//EN" "http://www.w3.org/Graphics/SVG/1.1/DTD/svg11.dtd">
<svg version="1.1"
	 id="svg3739" xmlns:dc="http://purl.org/dc/elements/1.1/" xmlns:cc="http://creativecommons.org/ns#" xmlns:rdf="http://www.w3.org/1999/02/22-rdf-syntax-ns#" xmlns:svg="http://www.w3.org/2000/svg" xmlns:sodipodi="http://sodipodi.sourceforge.net/DTD/sodipodi-0.dtd" xmlns:inkscape="http://www.inkscape.org/namespaces/inkscape" sodipodi:docname="MJReddragon.svg" inkscape:version="0.47 r22583"
	 xmlns="http://www.w3.org/2000/svg" xmlns:xlink="http://www.w3.org/1999/xlink" x="0px" y="0px" width="74.7px" height="95.1px"
	 viewBox="0 0 74.7 95.1" enable-background="new 0 0 74.7 95.1" xml:space="preserve">
<sodipodi:namedview  showgrid="false" inkscape:cy="34.231187" inkscape:cx="-19.422163" inkscape:zoom="1.922232" borderopacity="1.0" bordercolor="#666666" pagecolor="#ffffff" id="base" inkscape:window-maximized="1" inkscape:window-y="25" inkscape:current-layer="layer1" inkscape:document-units="px" inkscape:window-x="0" inkscape:pageshadow="2" inkscape:pageopacity="0.0" inkscape:window-width="1440" inkscape:window-height="851">
	</sodipodi:namedview>
<g id="text3983" transform="translate(295.93692,431.06141)">
	<path id="path3988" sodipodi:nodetypes="ccccccscscssccsssccscccccsccscccsccsscsccccccscccccsscccccccsccc" fill="#BA0000" d="
		M-257.737-409.011c0,0.333-0.166,1.167-0.5,2.5c-0.267,1.333-0.4,2.066-0.4,2.2v5.3c0.133,0.066,0.5,0.1,1.1,0.1l13-1.5
		c0.733,0,2,0.5,3.8,1.5c1.801,1,3.1,1.9,3.9,2.7c-0.2,0.2-0.6,0.601-1.2,1.2s-1.033,1.033-1.3,1.3c-0.2,0.267-0.566,0.667-1.1,1.2
		c-0.467,0.467-0.834,0.866-1.101,1.2c-0.2,0.267-0.5,0.633-0.899,1.1c-0.334,0.467-0.601,0.867-0.801,1.2
		c-0.133,0.333-0.3,0.7-0.5,1.1c-0.199,0.4-0.333,0.801-0.4,1.2c-0.066,0.333-0.1,0.7-0.1,1.101c0,0.399,0.1,1.166,0.301,2.3h-5.4
		c-4.733,0.333-7.2,0.5-7.4,0.5c-0.866,0-1.5-0.134-1.9-0.4l-0.1,15.5c-0.934,6.8-1.767,11.2-2.5,13.2c-0.8-1.467-1.2-2.6-1.2-3.4
		v-5.8c0-0.066,0.066-0.667,0.2-1.8c0.133-1.134,0.2-1.833,0.2-2.1v-13.5c0-0.467-0.367-0.7-1.1-0.7c-1.333,0-4.5,0.2-9.5,0.6
		c-0.667,1.267-1.133,2.3-1.4,3.101c-0.2,0-0.433-0.2-0.7-0.601c-0.667-1.6-1.2-3.733-1.6-6.399c-0.4-2.667-0.667-4.167-0.8-4.5
		l-3.2-7.301c0.6,0,1.566,0.067,2.9,0.2c1.333,0.134,2.167,0.2,2.5,0.2c1.533,0,5.6-0.566,12.2-1.7c0.466-0.333,0.7-0.8,0.7-1.399
		c0-3.467-0.867-7.767-2.6-12.9h3.8c0.867,0,1.6,0.366,2.2,1.1C-258.037-410.745-257.737-409.945-257.737-409.011 M-245.638-394.212
		c0-1.267-0.166-2.1-0.5-2.5c-0.266-0.467-0.866-0.7-1.799-0.7c-0.268,0-0.634,0.034-1.101,0.101l-8.601,0.7
		c-0.199,0-0.5-0.167-0.899-0.5v12.399c0.2,0,0.601,0.033,1.2,0.101c0.6,0,1.066,0,1.4,0c0.066,0,0.166-0.034,0.299-0.101
		c0.201-0.066,0.5-0.133,0.9-0.2c0.4-0.133,0.834-0.233,1.301-0.3C-248.237-386.011-245.638-389.011-245.638-394.212
		 M-262.237-384.212v-11.7l-12.1,1.7c0.333,1.267,0.566,2.434,0.7,3.5c0.2,1.066,0.333,1.867,0.4,2.4c0.066,0.533,0.1,1.366,0.1,2.5
		c0.067,1.133,0.133,2.066,0.2,2.8L-262.237-384.212"/>
</g>
</svg>
