<?xml version="1.0" encoding="utf-8"?>
<!-- Generator: Adobe Illustrator 16.0.0, SVG Export Plug-In . SVG Version: 6.00 Build 0)  -->
<!DOCTYPE svg PUBLIC "-//W3C//DTD SVG 1.1//EN" "http://www.w3.org/Graphics/SVG/1.1/DTD/svg11.dtd">
<svg version="1.1"
	 id="svg2" xmlns:dc="http://purl.org/dc/elements/1.1/" xmlns:cc="http://creativecommons.org/ns#" xmlns:rdf="http://www.w3.org/1999/02/22-rdf-syntax-ns#" xmlns:svg="http://www.w3.org/2000/svg" xmlns:sodipodi="http://sodipodi.sourceforge.net/DTD/sodipodi-0.dtd" xmlns:inkscape="http://www.inkscape.org/namespaces/inkscape" sodipodi:docname="MJmei.svg" inkscape:version="0.47 r22583"
	 xmlns="http://www.w3.org/2000/svg" xmlns:xlink="http://www.w3.org/1999/xlink" x="0px" y="0px" width="74.7px" height="95.1px"
	 viewBox="0 0 74.7 95.1" enable-background="new 0 0 74.7 95.1" xml:space="preserve">
<sodipodi:namedview  showgrid="false" inkscape:cy="52.15921" inkscape:cx="-96.600376" inkscape:zoom="3.959798" borderopacity="1.0" bordercolor="#666666" pagecolor="#ffffff" id="base" inkscape:window-maximized="1" inkscape:window-y="25" inkscape:current-layer="svg2" inkscape:document-units="px" inkscape:window-x="0" inkscape:pageshadow="2" inkscape:pageopacity="0.0" inkscape:window-width="1440" inkscape:window-height="851">
	</sodipodi:namedview>
<g id="g3861" transform="translate(-21.845434,-83.749761)">
	
		<path id="path3863" sodipodi:nodetypes="csscccsscccscccccccscccccccccsscccccssccccsccccccscsscccccscccccsscccccccccsccccccssscccccscccccccccccscccccccccc" fill="#10106C" d="
		M46.498,95.85c0.2,0,1.567-0.366,4.1-1.1s3.9-1.101,4.1-1.101c0.267,0,0.8,0.134,1.6,0.4v0.8l-9.3,1.9
		c-0.133,0-0.333-0.033-0.6-0.101c-0.267-0.066-0.5-0.1-0.7-0.1c-0.467,0-1,0.3-1.6,0.9l-2.3,2.199l2.7-5c1.067-2,1.6-3.6,1.6-4.8
		c0-0.399-0.033-0.733-0.1-1h1.1c0.533,0,1.133,0.567,1.8,1.7l-3.1,5.2C45.864,95.816,46.098,95.85,46.498,95.85 M55.498,103.45
		c0.2,0,0.633-0.101,1.3-0.301c0.667-0.267,1.1-0.399,1.3-0.399c0.733,0,1.6,0.566,2.6,1.7h-6.1c-0.6,2.8-0.9,4.399-0.9,4.8v0.6
		c0.333,0.134,0.767,0.3,1.3,0.5c0.6,0.134,1.034,0.267,1.3,0.4c0.333,0.066,0.667,0.2,1,0.399c0.333,0.134,0.566,0.301,0.7,0.5
		c0.2,0.2,0.333,0.434,0.4,0.7c-0.134,0.2-0.4,0.3-0.8,0.3c-0.066,0-0.233-0.033-0.5-0.1c-0.2-0.066-0.633-0.2-1.3-0.4
		c-0.6-0.199-1.3-0.399-2.1-0.6l-1.2,3.5c-0.533,1.467-1.433,2.5-2.7,3.1l-1.7-3.399c0.533,0.2,1.1,0.3,1.7,0.3
		c0.466,0,0.9-0.4,1.3-1.2s0.6-1.433,0.6-1.899v-1.101h-7.7l-3.2,1.101c-0.133-0.134-0.2-0.4-0.2-0.801c0-0.133,0.567-0.966,1.7-2.5
		l1.3-2v-0.6l-1.9,0.4c-0.4,0-0.867-0.301-1.4-0.9c1.667-0.2,2.9-0.434,3.7-0.7c0.4-1.399,0.6-2.6,0.6-3.6
		c0-0.667-0.1-1.233-0.3-1.7c1.466,0,3.1-0.267,4.9-0.8s2.767-0.8,2.9-0.8c0.934,0,1.934,0.6,3,1.8c-0.467,1-0.7,2.033-0.7,3.1
		C54.864,103.25,55.231,103.45,55.498,103.45 M38.098,102.35c0.2,0,0.5-0.033,0.9-0.1c0.467-0.134,0.733-0.2,0.8-0.2
		c0.466,0,0.833,0.333,1.1,1v0.9h-1.6C39.231,103.95,38.831,103.417,38.098,102.35 M36.198,99.75c-0.733,0-1.7,0.133-2.9,0.399
		c-1.2,0.268-1.833,0.4-1.9,0.4c-0.333,0-0.934-0.233-1.8-0.7c1.667-0.399,4-1.267,7-2.6v-5.601c-0.2-0.6-0.566-1.533-1.1-2.8h1.2
		c0.2,0,0.867,0.4,2,1.2c-0.2,1.533-0.533,3.8-1,6.8c0.267,0.2,0.733,0.334,1.4,0.4h1.8c0,0.2-0.1,0.399-0.3,0.6
		c-0.133,0.134-0.3,0.267-0.5,0.4c-0.2,0.066-0.533,0.233-1,0.5c-0.467,0.2-0.867,0.399-1.2,0.6c-0.134,0.667-0.2,1.101-0.2,1.3
		v14.2c0,0.134-0.333,0.834-1,2.101c-0.867-0.667-1.3-1.5-1.3-2.5c0-0.934,0.2-2.4,0.6-4.4c0.4-2,0.6-3.467,0.6-4.4
		c0-0.732-0.066-1.866-0.2-3.399c-2.467,4.6-5.1,7.533-7.9,8.8C32.631,106.05,35.198,102.283,36.198,99.75 M52.498,103.75v-3.7
		c-0.533-0.467-1.033-0.7-1.5-0.7c-0.4,0-1.267,0.167-2.6,0.5c-1.333,0.267-2.134,0.4-2.4,0.4c-0.2,1.934-0.433,3.399-0.7,4.399
		L52.498,103.75 M52.298,109.85v-5.1c-1.667,0.2-4.067,0.533-7.2,1c-0.4,1-0.9,2.366-1.5,4.1H52.298 M48.998,100.95
		c0.2,0,0.467,0.166,0.8,0.5c0.333,0.267,0.5,0.5,0.5,0.699c0,0.601-0.133,1.034-0.4,1.301c-1-0.267-1.5-0.767-1.5-1.5v-1H48.998
		 M49.198,107.85c0,0.334-0.1,0.767-0.3,1.3c-0.4,0-0.767-0.133-1.1-0.399c-0.267-0.333-0.4-0.634-0.4-0.9v-1.6
		C48.598,106.45,49.198,106.983,49.198,107.85"/>
</g>
<g id="g3865" transform="translate(-94.323884,8.679197)">
	
		<path id="path3867" sodipodi:nodetypes="ccscscscsccscsscsscsccscscccsscsccscscsccssssccscsssscccssscscccccscscsscccscscscc" fill="#9C0000" d="
		M147.924,44.321c3,0,5.533,1.066,7.6,3.2c2.134,2.066,3.2,4.6,3.2,7.6c0,3.066-1.066,5.667-3.2,7.8
		c-2.133,2.066-4.666,3.101-7.6,3.101c-1.2,0-2.334-0.167-3.4-0.5c1.4,1.933,2.1,4.066,2.1,6.399c0,3.066-1.066,5.634-3.199,7.7
		c-2.133,2.133-4.7,3.2-7.7,3.2c-3.066,0-5.667-1.067-7.8-3.2c-2.067-2.134-3.1-4.7-3.1-7.7c-2.2,3-5.133,4.5-8.8,4.5
		c-3.067,0-5.667-1.066-7.8-3.2c-2.066-2.133-3.1-4.699-3.1-7.699c0-2.467,0.7-4.634,2.1-6.5c1.4-1.867,3.2-3.167,5.4-3.9
		c-2.2-0.667-4-1.934-5.4-3.8c-1.4-1.867-2.1-4.033-2.1-6.5c0-3.066,1.067-5.634,3.2-7.7c2.133-2.134,4.7-3.2,7.7-3.2
		c3.667,0,6.6,1.5,8.8,4.5c0-3.066,1.066-5.633,3.2-7.7c2.133-2.133,4.7-3.199,7.7-3.199c3.067,0,5.634,1.066,7.7,3.199
		c2.133,2.134,3.199,4.7,3.199,7.7c0,2.334-0.699,4.467-2.1,6.4C145.59,44.487,146.724,44.321,147.924,44.321 M147.924,64.621
		c2.6,0,4.8-0.9,6.6-2.7c1.867-1.866,2.801-4.133,2.801-6.8s-0.934-4.9-2.801-6.7c-1.8-1.8-4-2.7-6.6-2.7
		c-2.066,0-3.934,0.601-5.6,1.801c-0.268-0.467-0.634-0.967-1.101-1.5c2.601-1.867,3.899-4.4,3.899-7.601
		c0-2.666-0.933-4.899-2.799-6.7c-1.801-1.8-4-2.699-6.601-2.699c-2.667,0-4.9,0.933-6.7,2.8c-1.8,1.8-2.7,4-2.7,6.6
		c0,1,0.133,1.967,0.4,2.9c-0.533,0.133-1.1,0.333-1.7,0.6c-0.6-1.8-1.733-3.333-3.4-4.6c-1.667-1.267-3.533-1.9-5.6-1.9
		c-2.667,0-4.934,0.934-6.8,2.8c-1.8,1.801-2.7,4-2.7,6.601c0,2.6,0.9,4.833,2.7,6.7c1.867,1.8,4.133,2.699,6.8,2.699
		c-0.067,0.467-0.1,0.767-0.1,0.9s0.033,0.467,0.1,1c-2.667,0-4.934,0.934-6.8,2.8c-1.8,1.8-2.7,4-2.7,6.601c0,2.6,0.9,4.8,2.7,6.6
		c1.867,1.866,4.133,2.8,6.8,2.8c2.066,0,3.9-0.633,5.5-1.899c1.667-1.2,2.833-2.733,3.5-4.601c0.6,0.267,1.167,0.467,1.7,0.601
		c-0.267,0.933-0.4,1.899-0.4,2.899c0,2.667,0.9,4.9,2.7,6.7c1.866,1.866,4.099,2.8,6.7,2.8s4.8-0.934,6.601-2.8
		c1.866-1.8,2.799-4.033,2.799-6.7c0-3.133-1.299-5.666-3.899-7.6c0.467-0.533,0.833-1.033,1.101-1.5
		C143.99,64.021,145.858,64.621,147.924,64.621 M130.224,44.321c3.067,0,5.634,1.066,7.7,3.2c2.133,2.066,3.199,4.6,3.199,7.6
		c0,3.066-1.066,5.667-3.199,7.8c-2.133,2.066-4.7,3.101-7.7,3.101c-3.066,0-5.667-1.067-7.8-3.2c-2.067-2.134-3.1-4.7-3.1-7.7
		c0-3.066,1.066-5.634,3.2-7.7C124.657,45.354,127.224,44.321,130.224,44.321 M130.224,64.621c2.667,0,4.899-0.934,6.7-2.8
		c1.867-1.867,2.8-4.101,2.8-6.7s-0.933-4.8-2.8-6.6c-1.801-1.867-4.033-2.801-6.7-2.801c-2.667,0-4.9,0.934-6.7,2.801
		c-1.8,1.8-2.7,4-2.7,6.6c0,2.667,0.9,4.934,2.7,6.8C125.39,63.72,127.624,64.621,130.224,64.621"/>
</g>
</svg>
